<svg width="986" height="1072" viewBox="0 0 986 1072" fill="none" xmlns="http://www.w3.org/2000/svg">
<path d="M399.8 642.1C395.5 653.6 391.2 665.2 386.4 676.6C374 706.2 360 735 345.7 763.7C317.7 819.7 299.1 910 354.8 938.5C439.7 982 594.9 954.6 685.8 910.7C716.6 895.8 746.5 878.7 774 858.4C783.2 851.6 792.1 844.6 800.8 837.1C831.5 810.6 858.2 779.7 879.9 745.6C880.5 744.6 881.1 743.7 881.7 742.8C930.6 664.6 965.7 574.8 965.7 518.9C965.7 463 961.6 418.4 941.6 359.1C941.6 348 931.5 331.3 927.1 321.2C921.2 307.5 914.5 294.2 907.1 281.3C897.9 265.3 886.8 250.5 875.2 236.1C867.4 226.5 860.9 212.3 850.3 205.3C848.2 203.9 846.1 203.1 844.1 202.7C843.8 202.6 843.5 202.6 843.1 202.5" fill="#FCAB40"/>
<path d="M399.8 642.1C395.5 653.6 391.2 665.2 386.4 676.6C374 706.2 360 735 345.7 763.7C317.7 819.7 299.1 910 354.8 938.5C439.7 982 594.9 954.6 685.8 910.7C716.6 895.8 746.5 878.7 774 858.4C783.2 851.6 792.1 844.6 800.8 837.1C831.5 810.6 858.2 779.7 879.9 745.6C880.5 744.6 881.1 743.7 881.7 742.8C930.6 664.6 965.7 574.8 965.7 518.9C965.7 463 961.6 418.4 941.6 359.1C941.6 348 931.5 331.3 927.1 321.2C921.2 307.5 914.5 294.2 907.1 281.3C897.9 265.3 886.8 250.5 875.2 236.1C867.4 226.5 860.9 212.3 850.3 205.3C848.2 203.9 846.1 203.1 844.1 202.7C843.8 202.6 843.5 202.6 843.1 202.5" stroke="black" stroke-width="27.99" stroke-miterlimit="10"/>
<path d="M947.87 603.65C931.04 664.6 880.83 747.3 852.39 780.97C824.24 814.34 766.49 867.16 670.14 909.82C601.07 940.29 487.89 948.42 427.23 945.22C366.29 942.03 335.81 911.85 336.98 895.01C338.14 878.18 375.29 863.67 400.54 860.47C404.89 859.89 408.96 859.31 413.02 859.02C413.6 859.02 414.47 858.73 415.34 858.73C449.58 853.51 506.47 847.41 545.35 841.61C603.68 832.9 685.81 805.91 728.76 785.02C771.13 764.42 829.17 723.79 856.45 701.15C892.15 670.97 935.39 619.02 945.54 606.54C946.12 605.67 946.7 605.09 946.99 604.8C947.28 604.51 947.57 604.22 947.57 603.93C947.86 603.93 947.86 603.64 947.86 603.64L947.87 603.65Z" fill="#BF6B04"/>
<path d="M704.5 901.5C704.2 901.5 703.9 901.8 703.7 901.8C636.2 927 560.4 939.3 491 946.8C456.8 950.7 421.9 951.8 388.5 943.4C372.8 939.8 357.1 933.3 346.5 921C335.9 908.7 331.9 889.6 340.9 876.2C344.8 870.3 350.4 866.1 356.6 862.8C391.3 843.2 435.5 844 474.2 839.3C515.1 834.3 555.9 829.5 596.2 820.5C653.3 807.6 708.7 786.6 760.2 758.6C798 738.5 833.5 714.4 866.3 686.9C894 663.9 926.5 634.3 948.6 603.8C948.6 603.5 948.9 603.5 948.9 603.5" stroke="black" stroke-width="27.99" stroke-miterlimit="10" stroke-linecap="round"/>
<path d="M854.9 227.8C854.9 230.3 854.7 232.8 854.5 235.3C849.5 286.1 799.6 326.1 764.9 358.1C746 375.6 726.2 391.9 706.2 408.1C684.3 425.9 662.1 443.4 640.8 461.8C594.8 501.5 548.7 541.3 503.3 581.9C477.3 605.2 451.6 628.7 426.4 652.7C421 657.8 402.2 673 397.8 659.2C396.8 656.2 397.3 652.9 397.9 649.8C401.6 630.3 409.6 612.8 418.2 595.2C429.1 573 443 553.2 458.7 534.8C474.4 516.4 491.8 499.4 509.5 482.5C548 446 589.3 412.5 629.5 377.9C640.1 368.9 652.4 358.6 665.5 347.8C669.8 344.3 674.1 340.7 678.5 337C726.1 297.7 780.3 253.3 803.4 229.9C818.8 214.4 855.3 184 854.9 227.8Z" fill="#BF6B04" stroke="#000002" stroke-width="32.1767" stroke-miterlimit="10" stroke-linecap="round" stroke-linejoin="round"/>
<path d="M706.2 408.1C684.3 425.9 662.1 443.4 640.8 461.8C594.8 501.5 548.7 541.3 503.3 581.9C502.8 581.4 502.4 580.9 502 580.3C493.2 567.6 477.2 551.5 458.8 534.8C446.5 523.7 433 512.3 419.9 501.7C403.9 488.7 388.8 477.1 377.8 468.7C372.3 464.5 367.8 461.2 364.6 458.9C363 457.7 361.8 456.9 361 456.3C360.6 456 360.3 455.8 360.1 455.6L359.9 455.4H359.8C356.4 452.9 354.3 449.1 354 444.9C353.8 440.7 355.4 436.6 358.5 433.8L544.4 262.9C548.3 259.3 553.9 258.2 558.9 260.1C601 276.3 637.1 311.4 665.5 347.9C674.9 360 683.5 372.2 691.2 384C696.6 392.2 701.6 400.4 706.2 408.1Z" fill="#FAFAFA" stroke="black" stroke-width="28" stroke-linecap="round" stroke-linejoin="round"/>
<path d="M600.8 477.6C605.1 474.2 609.7 470.8 614.5 467.2C618.1 464.5 621.8 461.9 625.5 459.2C629.2 456.6 632.9 453.9 636.7 451.3C641 448.3 645.4 445.3 649.9 442.3L654.2 439.4C670.4 428.7 687.2 418.2 704.1 408.3L704 408.2C704 408.2 696 398.6 682.3 384C660.9 397.4 640.4 411.2 621.3 425.9C563.1 470.7 507.6 520.6 477 562.8C486.1 568.1 494.1 573.4 500.4 578.5V578.4C506 571.6 512 564.8 518 557.9L522.2 553.2C527 547.8 531.7 542.6 536.6 537.3L542.3 531.2C546.9 526.4 551.4 521.8 555.9 517.2L561.6 511.5C567.8 505.4 574 499.6 579.8 494.5C584.4 490.5 589.7 486.1 595.3 481.7L600.8 477.6Z" fill="#EEEEEE"/>
<path d="M706.6 408C684.7 425.8 662.5 443.3 641.2 461.7C595.2 501.4 549.1 541.2 503.7 581.8C503.2 581.3 502.8 580.8 502.4 580.2C493.6 567.5 477.6 551.4 459.2 534.7C446.9 523.6 433.4 512.2 420.3 501.6C404.3 488.6 389.2 477 378.2 468.6C372.7 464.4 368.2 461.1 365 458.8C363.4 457.6 362.2 456.8 361.4 456.2C361 455.9 360.7 455.7 360.5 455.5L360.3 455.3H360.2C356.8 452.8 354.7 449 354.4 444.8C354.2 440.6 355.8 436.5 358.9 433.7L544.8 262.8C548.7 259.2 554.3 258.1 559.3 260C601.4 276.2 637.5 311.3 665.9 347.8C675.3 359.9 683.9 372.1 691.6 383.9C697 392.1 702 400.3 706.6 408Z" stroke="black" stroke-width="28" stroke-linecap="round" stroke-linejoin="round"/>
<path d="M345.69 763.73C317.7 819.71 299.06 910.04 354.79 938.53C439.69 982 594.9 954.6 685.78 910.71C716.57 895.84 746.44 878.67 774.03 858.43C783.22 851.68 792.17 844.6 800.8 837.14C831.46 810.68 858.18 779.79 879.92 745.61C880.52 744.66 881.12 743.71 881.72 742.76C930.59 664.55 965.69 574.81 965.69 518.83C965.69 462.85 961.58 418.31 941.56 359C926.72 315.05 902.6 262.07 859.27 216.89" stroke="black" stroke-width="27.99" stroke-miterlimit="10"/>
<path d="M823.6 736.2C819.3 729.9 810.7 728.3 804.4 732.5C776.4 751 744.2 770.3 718.3 782.1C689.1 795.5 641.2 811.3 594.7 822.6C590.9 823.5 587.7 825.9 585.8 829.3C583.9 832.7 583.5 836.6 584.6 840.3V840.4C584.7 840.9 584.9 841.3 585.1 841.7L598 836.3C585.1 841.7 585.1 841.7 585.1 841.7V841.8C585.1 841.9 585.2 842 585.3 842.2C585.4 842.5 585.7 843.1 586 843.7C586.6 845 587.4 846.9 588.5 849.3C590.7 854.1 593.9 860.9 598.1 869.3C606.5 885.9 618.8 908.6 634.4 932.5C665.2 979.7 710.7 1034.8 766.7 1056.3C771.7 1058.2 777.3 1057.1 781.2 1053.5L967.1 882.6C970.2 879.8 971.8 875.7 971.6 871.5C971.4 867.3 969.2 863.4 965.8 861H965.7L965.5 860.8C965.3 860.6 965 860.4 964.6 860.1C963.8 859.5 962.6 858.6 961 857.5C957.9 855.2 953.4 851.8 947.8 847.7C936.7 839.3 921.7 827.7 905.7 814.7C873.1 788.2 838.3 757.3 823.6 736.2Z" fill="#FAFAFA"/>
<path d="M585.1 841.7C584.9 841.3 584.7 840.9 584.6 840.4V840.3C583.5 836.6 583.9 832.7 585.8 829.3C587.7 825.9 590.9 823.5 594.7 822.6C641.2 811.3 689.1 795.5 718.3 782.1C744.2 770.3 776.4 751 804.4 732.5C810.7 728.3 819.3 729.9 823.6 736.2C838.3 757.3 873.1 788.2 905.7 814.7C921.7 827.7 936.7 839.3 947.8 847.7C953.4 851.8 957.9 855.2 961 857.5C962.6 858.6 963.8 859.5 964.6 860.1C965 860.4 965.3 860.6 965.5 860.8L965.7 861H965.8C969.2 863.4 971.4 867.3 971.6 871.5C971.8 875.7 970.2 879.8 967.1 882.6L781.2 1053.5C777.3 1057.1 771.7 1058.2 766.7 1056.3C710.7 1034.8 665.2 979.7 634.4 932.5C618.8 908.6 606.5 885.9 598.1 869.3C593.9 860.9 590.7 854.1 588.5 849.3C587.4 846.9 586.6 845 586 843.7C585.7 843.1 585.4 842.5 585.3 842.2C585.2 842 585.1 841.9 585.1 841.8V841.7ZM585.1 841.7L598 836.3C585.1 841.7 585.1 841.7 585.1 841.7Z" stroke="black" stroke-width="28" stroke-linecap="round" stroke-linejoin="round"/>
<path d="M702.4 803.9C697.9 805.6 693.2 807.4 688.3 809.2C684.6 810.5 680.8 811.9 677 813.2C673.3 814.5 669.5 815.8 665.6 817.1C661.2 818.6 656.8 819.9 652.2 821.4L647.8 822.7C631.5 827.7 614.7 832.3 598 836.3V836.4C598 836.4 602.3 846.5 610.2 862.3C631.6 856.4 652.4 849.9 672.1 842.4C732.4 819.3 791.6 791.2 828 763.4C821.7 756.6 816.3 750.2 812.2 744.3L812.1 744.4C805.6 748.7 798.9 753 792.1 757.3L787.4 760.2C782 763.5 776.7 766.7 771.3 769.9L765 773.6C759.9 776.5 755 779.3 750 782L743.8 785.4C737 789 730.4 792.3 724.2 795.1C719.3 797.3 713.7 799.7 707.9 802L702.4 803.9Z" fill="#D6D6D6"/>
</svg>
