<svg width="20" height="19" viewBox="0 0 20 19" fill="none" xmlns="http://www.w3.org/2000/svg">
<g clip-path="url(#clip0_23_2664)">
<path d="M9.68187 16.4183C8.31267 16.4183 6.82123 15.0614 4.74299 13.191L4.58407 13.0443C2.2491 10.9293 1.79678 9.89022 1.82123 8.8022C1.87013 6.66283 2.56695 5.06137 4.02172 3.74107C5.89214 2.05403 7.27355 1.83398 8.276 1.83398C8.60607 1.83398 8.94837 1.85843 9.33957 1.90733C10.6843 2.09071 12.8237 2.49413 15.8432 3.8511C17.7014 4.69462 18.3738 5.97824 18.0926 8.14205C17.8848 9.79242 16.8335 11.4917 14.9753 13.1787C12.7259 15.2081 11.1489 16.3939 9.68187 16.4061H9.66964L9.68187 16.4183Z" fill="#FFBC64"/>
<path d="M8.28805 3.66748C8.53255 3.66748 8.78928 3.69193 9.0949 3.72861C10.3296 3.89976 12.2856 4.2665 15.0973 5.5379C16.0753 5.97799 16.4788 6.43032 16.2832 7.93398C16.1365 9.13203 15.2563 10.4768 13.7526 11.846C12.2612 13.2029 10.5986 14.5844 9.6817 14.5966C9.02155 14.5966 7.40786 13.1296 5.97754 11.846L5.81862 11.6993C3.64258 9.73105 3.6548 9.14425 3.66703 8.86308C3.7037 7.22494 4.18047 6.10024 5.26849 5.12225C6.66214 3.86308 7.57901 3.69193 8.30028 3.69193M8.30028 0.0244499C6.62546 0.0244499 4.86507 0.550122 2.81128 2.40831C0.561892 4.4132 0.0484443 6.76039 -0.000455466 8.76528C-0.0493552 10.7824 1.09979 12.3594 3.3614 14.401C5.83084 16.6381 7.56678 18.2518 9.6817 18.2518C9.6817 18.2518 9.69392 18.2518 9.70615 18.2518C11.8333 18.2396 13.7404 16.7971 16.2098 14.5599C18.3614 12.6039 19.645 10.5257 19.914 8.39853C20.2074 6.08802 19.6939 3.59413 16.601 2.20049C13.7037 0.880195 11.4788 0.354523 9.59612 0.0977995C9.16825 0.0366748 8.72815 0 8.28805 0L8.30028 0.0244499Z" fill="black"/>
</g>
<defs>
<clipPath id="clip0_23_2664">
<rect width="20" height="18.2518" fill="white"/>
</clipPath>
</defs>
</svg>
