<svg width="16" height="15" viewBox="0 0 16 15" fill="none" xmlns="http://www.w3.org/2000/svg">
<g clip-path="url(#clip0_23_2670)">
<path d="M7.57197 13.1424C7.08968 13.1424 6.4627 12.5275 5.48606 11.5388C5.03994 11.0927 4.55765 10.5983 4.01507 10.104C2.53203 8.75358 1.80859 7.75283 1.80859 7.01734C1.80859 6.28184 2.49586 5.34137 3.84627 4.12359C5.96835 2.20648 7.04145 1.80859 8.00603 1.80859C9.1153 1.80859 10.5139 2.33911 12.5637 3.26752C13.0339 3.48455 14.4808 4.13565 14.1432 6.74002C13.9985 7.92163 12.7566 9.18764 11.4424 10.3813L10.8636 10.9118C9.4529 12.202 8.42804 13.1424 7.58403 13.1424H7.57197Z" fill="#FFBC64"/>
<path d="M8.00555 3.61718C8.82545 3.61718 10.3205 4.24416 11.8156 4.91937C12.093 5.03994 12.515 5.23286 12.3462 6.51093C12.31 6.82442 11.9 7.51168 10.2241 9.04295L9.64534 9.57347C9.03042 10.1402 8.22258 10.8757 7.72823 11.2012C7.45092 10.948 7.06508 10.5742 6.77571 10.2607C6.32959 9.81462 5.82319 9.29616 5.23238 8.75358C4.17134 7.789 3.79756 7.24642 3.66493 7.01733C3.78551 6.8003 4.12311 6.30595 5.06358 5.46194C7.10126 3.61718 7.74029 3.61718 8.00555 3.61718ZM8.00555 0C6.29342 0 4.78626 0.831952 2.62801 2.78523C-0.989173 6.06481 -0.820371 8.16277 2.79681 11.4424C4.78626 13.2509 5.85936 14.951 7.57149 14.951C7.57149 14.951 7.57149 14.951 7.58355 14.951C9.29568 14.951 10.6582 13.5283 12.6476 11.7197C14.3838 10.1402 15.7101 8.69329 15.9272 6.9691C16.1683 5.11228 15.7945 2.74906 13.2987 1.61567C11.056 0.602864 9.45242 0 8.00555 0Z" fill="black"/>
</g>
<defs>
<clipPath id="clip0_23_2670">
<rect width="16" height="14.951" fill="white"/>
</clipPath>
</defs>
</svg>
