<svg width="4012" height="436" viewBox="0 0 4012 436" fill="none" xmlns="http://www.w3.org/2000/svg">
<g clip-path="url(#clip0_28_2718)">
<path d="M67.5 428.91C45.51 428.91 30.77 411.77 23.94 401.55C13.02 385.21 6.5 363.88 6.5 344.49C6.5 281.57 10.06 249.59 13.49 218.66C16.97 187.38 20.56 155.03 20.56 91.3898C20.56 71.4398 23.75 58.2398 30.6 49.8498C37.75 41.0898 49.47 37.0098 67.49 37.0098C141.86 37.0098 179.67 33.8098 216.23 30.7098C252.52 27.6398 290.05 24.4598 363.88 24.4598C437.71 24.4598 476.24 19.8698 512.86 15.4398C549.1 11.0498 586.57 6.50977 660.27 6.50977C733.97 6.50977 771.4 11.4298 807.62 16.1898C844.26 20.9998 882.14 25.9798 956.66 25.9798C1031.18 25.9798 1068.07 28.6998 1104.39 31.3298C1140.93 33.9798 1178.72 36.7198 1253.05 36.7198C1327.38 36.7198 1364.93 35.8598 1401.39 35.0298C1437.78 34.1998 1475.41 33.3398 1549.44 33.3398C1623.47 33.3398 1660.78 36.6298 1697.07 39.8098C1733.64 43.0098 1771.45 46.3298 1845.83 46.3298C1920.21 46.3298 1957.94 43.6498 1994.49 41.0598C2030.81 38.4798 2068.36 35.8198 2142.23 35.8198C2216.1 35.8198 2253.79 37.4498 2290.15 39.0198C2326.65 40.5998 2364.39 42.2298 2438.63 42.2298C2512.87 42.2298 2550.53 41.2098 2587 40.2298C2623.39 39.2498 2661.01 38.2298 2735.02 38.2298C2809.03 38.2298 2846.71 38.8098 2883.11 39.3698C2919.56 39.9298 2957.26 40.5098 3031.41 40.5098C3105.56 40.5098 3143.05 41.4698 3179.44 42.3998C3215.91 43.3298 3253.62 44.2898 3327.8 44.2898C3401.98 44.2898 3440.13 39.9098 3476.75 35.6698C3513 31.4698 3550.48 27.1398 3624.2 27.1398C3697.92 27.1398 3735.86 27.9698 3772.26 28.7698C3808.72 29.5798 3846.43 30.4098 3920.6 30.4098C3958.65 30.4098 3985.23 55.4898 3985.23 91.3998C3985.23 155.19 3990.36 187.61 3995.33 218.97C4000.22 249.83 4005.27 281.74 4005.27 344.5C4005.27 366.5 3988.05 381.32 3977.78 388.2C3961.35 399.21 3939.98 405.78 3920.6 405.78C3846.83 405.78 3809.32 402.02 3773.05 398.39C3736.46 394.72 3698.63 390.93 3624.21 390.93C3549.79 390.93 3511.84 395.59 3475.22 400.1C3438.99 404.56 3401.52 409.17 3327.82 409.17C3254.12 409.17 3216.44 406.21 3180.14 403.35C3143.59 400.47 3105.79 397.49 3031.43 397.49C2957.07 397.49 2919.91 395.6 2883.56 393.77C2847.05 391.94 2809.3 390.04 2735.04 390.04C2660.78 390.04 2622.65 394.86 2586.02 399.53C2549.79 404.15 2512.33 408.92 2438.64 408.92C2364.95 408.92 2326.58 411.21 2290.05 413.43C2253.72 415.64 2216.15 417.92 2142.25 417.92C2068.35 417.92 2030.68 416.39 1994.32 414.91C1957.83 413.43 1920.09 411.89 1845.86 411.89C1771.63 411.89 1734.62 407.81 1698.37 403.87C1661.77 399.89 1623.92 395.78 1549.47 395.78C1475.02 395.78 1436.73 403.43 1399.99 410.82C1363.87 418.09 1326.53 425.6 1253.08 425.6C1179.63 425.6 1141.66 422.93 1105.35 420.35C1068.81 417.75 1031.02 415.07 956.69 415.07C882.36 415.07 844.86 415.5 808.42 415.91C772.01 416.32 734.36 416.75 660.3 416.75C586.24 416.75 549.32 410.66 513.14 404.78C476.46 398.81 438.52 392.64 363.9 392.64C289.28 392.64 250.96 401.95 214.15 410.96C178.09 419.78 140.81 428.91 67.5 428.91Z" fill="#FEEED9"/>
<path d="M660.28 13.0002C733.53 13.0002 770.77 17.8902 806.78 22.6202C843.62 27.4602 881.72 32.4702 956.67 32.4702C1031.62 32.4702 1067.73 35.1802 1103.93 37.8002C1140.59 40.4602 1178.5 43.2002 1253.06 43.2002C1327.62 43.2002 1365.05 42.3402 1401.55 41.5002C1437.91 40.6702 1475.5 39.8102 1549.45 39.8102C1623.4 39.8102 1660.36 43.0902 1696.51 46.2502C1733.22 49.4702 1771.17 52.7902 1845.84 52.7902C1920.51 52.7902 1958.3 50.1002 1994.96 47.5002C2031.16 44.9302 2068.6 42.2802 2142.24 42.2802C2215.88 42.2802 2253.58 43.9002 2289.87 45.4702C2326.44 47.0502 2364.25 48.6902 2438.63 48.6902C2513.01 48.6902 2550.66 47.6702 2587.17 46.6902C2623.51 45.7102 2661.09 44.7002 2735.01 44.7002C2808.93 44.7002 2846.63 45.2802 2883.01 45.8402C2919.49 46.4002 2957.21 46.9802 3031.41 46.9802C3105.61 46.9802 3142.93 47.9402 3179.28 48.8602C3215.79 49.7902 3253.54 50.7502 3327.81 50.7502C3402.08 50.7502 3440.71 46.3502 3477.5 42.0902C3513.56 37.9202 3550.85 33.6002 3624.2 33.6002C3697.55 33.6002 3735.75 34.4302 3772.11 35.2302C3808.61 36.0402 3846.35 36.8702 3920.6 36.8702C3937.18 36.8702 3952.07 42.2202 3962.53 51.9302C3973.13 61.7702 3978.73 75.4002 3978.73 91.3602C3978.73 155.66 3983.9 188.34 3988.91 219.94C3993.98 251.96 3998.77 282.21 3998.77 344.46C3998.77 363.44 3983.35 376.6 3974.16 382.76C3958.76 393.08 3938.74 399.24 3920.6 399.24C3847.15 399.24 3809.81 395.5 3773.7 391.88C3736.95 388.2 3698.96 384.39 3624.21 384.39C3549.46 384.39 3511.24 389.08 3474.43 393.61C3438.39 398.05 3401.12 402.64 3327.82 402.64C3254.52 402.64 3216.82 399.69 3180.65 396.84C3143.97 393.95 3106.04 390.96 3031.43 390.96C2956.82 390.96 2920.16 389.07 2883.89 387.25C2847.3 385.41 2809.47 383.51 2735.04 383.51C2660.61 383.51 2622.03 388.36 2585.2 393.05C2549.17 397.64 2511.92 402.38 2438.65 402.38C2365.38 402.38 2326.29 404.68 2289.67 406.9C2253.43 409.1 2215.97 411.38 2142.26 411.38C2068.55 411.38 2030.89 409.85 1994.59 408.38C1958.03 406.89 1920.23 405.36 1845.87 405.36C1771.51 405.36 1735.16 401.3 1699.08 397.38C1662.31 393.38 1624.28 389.25 1549.48 389.25C1474.68 389.25 1435.77 396.96 1398.72 404.42C1361.27 411.96 1325.89 419.08 1253.09 419.08C1180.29 419.08 1142.02 416.42 1105.81 413.85C1069.16 411.25 1031.25 408.55 956.69 408.55C882.13 408.55 844.81 408.98 808.34 409.39C771.95 409.8 734.31 410.23 660.29 410.23C586.27 410.23 551.75 404.45 514.18 398.34C477.24 392.33 439.04 386.11 363.89 386.11C288.74 386.11 249.78 395.52 212.6 404.61C175.28 413.74 140.02 422.37 67.49 422.37C48.53 422.37 35.45 407.04 29.34 397.9C19.11 382.59 12.99 362.61 12.99 344.45C12.99 281.89 16.53 250.09 19.94 219.34C23.44 187.88 27.05 155.35 27.05 91.3502C27.05 73.2302 29.85 60.9902 35.62 53.9202C39.28 49.4302 46.57 43.4702 67.48 43.4702C142.13 43.4702 180.07 40.2602 216.77 37.1502C252.93 34.0902 290.32 30.9202 363.87 30.9202C437.42 30.9202 476.82 26.3102 513.63 21.8502C549.68 17.4802 586.95 12.9702 660.26 12.9702M660.26 -0.0297852C512.07 -0.0297852 512.07 17.9302 363.87 17.9302C215.67 17.9302 215.67 30.4802 67.48 30.4802C26.92 30.4802 14.05 50.7902 14.05 91.3602C14.07 217.94 0 217.94 0 344.49C0 385.05 26.93 435.41 67.5 435.41C215.7 435.41 215.7 399.15 363.9 399.15C512.1 399.15 512.1 423.27 660.3 423.27C808.5 423.27 808.5 421.59 956.7 421.59C1104.9 421.59 1104.9 432.12 1253.09 432.12C1401.28 432.12 1401.28 402.3 1549.48 402.3C1697.68 402.3 1697.68 418.41 1845.87 418.41C1994.06 418.41 1994.07 424.43 2142.26 424.43C2290.45 424.43 2290.46 415.43 2438.65 415.43C2586.84 415.43 2586.85 396.55 2735.04 396.55C2883.23 396.55 2883.23 404 3031.43 404C3179.63 404 3179.62 415.67 3327.82 415.67C3476.02 415.67 3476.02 397.42 3624.21 397.42C3772.4 397.42 3772.41 412.27 3920.6 412.27C3961.17 412.27 4011.77 385.05 4011.77 344.49C4011.77 217.94 3991.73 217.94 3991.73 91.3902C3991.73 50.8302 3961.16 23.9002 3920.6 23.9002C3772.4 23.9002 3772.4 20.6302 3624.2 20.6302C3476 20.6302 3476 37.7802 3327.8 37.7802C3179.6 37.7802 3179.6 34.0002 3031.4 34.0002C2883.2 34.0002 2883.2 31.7102 2735.01 31.7102C2586.82 31.7102 2586.82 35.7002 2438.62 35.7002C2290.42 35.7002 2290.42 29.2902 2142.23 29.2902C1994.04 29.2902 1994.03 39.8002 1845.84 39.8002C1697.65 39.8002 1697.64 26.8102 1549.45 26.8102C1401.26 26.8102 1401.25 30.2002 1253.06 30.2002C1104.87 30.2002 1104.87 19.4602 956.67 19.4602C808.47 19.4602 808.47 0.000214843 660.28 0.000214843L660.26 -0.0297852Z" fill="black"/>
</g>
<defs>
<clipPath id="clip0_28_2718">
<rect width="4011.77" height="435.41" fill="white"/>
</clipPath>
</defs>
</svg>
