<svg width="1934" height="210" viewBox="0 0 1934 210" fill="none" xmlns="http://www.w3.org/2000/svg">
<g clip-path="url(#clip0_26_2709)">
<path d="M293.58 206.3C226.39 206.3 192.23 205.67 159.2 205.07C126.14 204.46 91.95 203.84 24.69 203.84C19.14 203.84 15.7 201.23 15.7 188.26C15.7 147.44 12.58 126.7 9.56 106.63C6.58 86.82 3.5 66.34 3.5 26.04C3.5 17.89 15.94 9.14999 24.69 9.14999C91.92 9.14999 126.1 8.97999 159.15 8.80999C192.19 8.63999 226.36 8.46999 293.57 8.46999C360.78 8.46999 394.77 10.97 427.76 13.39C460.87 15.82 495.11 18.33 562.46 18.33C629.81 18.33 664.14 14.55 697.28 10.89C730.23 7.24999 764.31 3.48999 831.34 3.48999C898.37 3.48999 932.55 5.91999 965.53 8.26999C998.64 10.63 1032.88 13.07 1100.22 13.07C1167.56 13.07 1201.5 14.53 1234.52 15.94C1267.6 17.36 1301.82 18.82 1369.11 18.82C1436.4 18.82 1470.57 18.04 1503.64 17.3C1536.67 16.55 1570.82 15.78 1638.01 15.78C1705.2 15.78 1739.51 14.47 1772.59 13.21C1805.61 11.95 1839.75 10.65 1906.9 10.65C1916.41 10.65 1929.63 18.4 1929.63 26.04C1929.63 66.42 1927.61 86.95 1925.66 106.8C1923.69 126.82 1921.66 147.52 1921.66 188.25C1921.66 197.89 1914.03 201.33 1906.89 201.33C1839.75 201.33 1805.61 199.79 1772.6 198.3C1739.51 196.8 1705.3 195.26 1638 195.26C1570.7 195.26 1536.46 197.16 1503.36 199C1470.36 200.83 1436.24 202.73 1369.11 202.73C1301.98 202.73 1267.81 201.52 1234.79 200.34C1201.71 199.17 1167.51 197.95 1100.23 197.95C1032.95 197.95 998.9 197.18 965.87 196.43C932.8 195.68 898.61 194.9 831.35 194.9C764.09 194.9 729.8 196.87 696.7 198.77C663.7 200.67 629.58 202.63 562.46 202.63C495.34 202.63 460.99 203.57 427.92 204.47C394.89 205.37 360.75 206.31 293.57 206.31L293.58 206.3Z" fill="#FEEED9"/>
<path d="M831.35 6.99999C898.32 6.99999 932.37 9.42999 965.3 11.77C998.47 14.13 1032.77 16.58 1100.24 16.58C1167.71 16.58 1201.41 18.04 1234.39 19.45C1267.51 20.87 1301.76 22.33 1369.13 22.33C1436.5 22.33 1470.65 21.55 1503.73 20.8C1536.74 20.05 1570.87 19.28 1638.02 19.28C1705.17 19.28 1739.62 17.97 1772.73 16.71C1805.71 15.45 1839.82 14.15 1906.91 14.15C1915 14.15 1926.14 21.04 1926.14 26.04C1926.14 66.25 1924.13 86.69 1922.19 106.46C1920.22 126.56 1918.17 147.35 1918.17 188.25C1918.17 197.13 1909.55 197.83 1906.9 197.83C1839.84 197.83 1805.74 196.29 1772.77 194.8C1739.64 193.3 1705.39 191.76 1638.01 191.76C1570.63 191.76 1536.32 193.66 1503.18 195.5C1470.23 197.33 1436.15 199.22 1369.13 199.22C1302.11 199.22 1267.92 198.01 1234.94 196.84C1201.83 195.66 1167.6 194.45 1100.25 194.45C1032.9 194.45 998.97 193.68 965.97 192.93C932.88 192.18 898.67 191.4 831.37 191.4C764.07 191.4 729.67 193.37 696.52 195.27C663.57 197.16 629.5 199.12 562.48 199.12C495.46 199.12 460.94 200.06 427.84 200.96C394.84 201.86 360.71 202.8 293.59 202.8C226.47 202.8 192.29 202.17 159.27 201.57C126.19 200.96 91.98 200.34 24.7 200.34C21.73 200.34 21.18 199.3 20.74 198.46C19.72 196.52 19.21 193.09 19.21 188.26C19.21 147.18 16.07 126.3 13.03 106.11C9.93 85.52 7.01 66.07 7.01 26.04C7.01 20.41 17.26 12.65 24.7 12.65C91.94 12.65 126.12 12.48 159.18 12.31C192.22 12.14 226.38 11.97 293.59 11.97C360.8 11.97 394.6 14.47 427.52 16.88C460.69 19.31 495 21.83 562.48 21.83C629.96 21.83 664.45 18.04 697.69 14.37C730.55 10.74 764.53 6.98999 831.36 6.98999M831.36 -0.0100098C696.92 -0.0100098 696.92 14.82 562.48 14.82C428.04 14.82 428.02 4.96999 293.58 4.96999C159.14 4.96999 159.14 5.65999 24.69 5.65999C14.26 5.65999 0 15.61 0 26.04C0 107.15 12.2 107.15 12.2 188.25C12.2 198.68 14.26 207.33 24.69 207.33C159.14 207.33 159.14 209.79 293.58 209.79C428.02 209.79 428.03 206.11 562.47 206.11C696.91 206.11 696.92 198.39 831.36 198.39C965.8 198.39 965.8 201.44 1100.25 201.44C1234.7 201.44 1234.69 206.22 1369.13 206.22C1503.57 206.22 1503.57 198.76 1638.02 198.76C1772.47 198.76 1772.46 204.83 1906.91 204.83C1917.34 204.83 1925.18 198.69 1925.18 188.25C1925.18 107.14 1933.14 107.14 1933.14 26.04C1933.14 15.61 1917.34 7.14999 1906.91 7.14999C1772.46 7.14999 1772.46 12.28 1638.02 12.28C1503.58 12.28 1503.57 15.33 1369.13 15.33C1234.69 15.33 1234.68 9.57999 1100.24 9.57999C965.8 9.57999 965.79 -9.76585e-06 831.35 -9.76585e-06L831.36 -0.0100098Z" fill="black"/>
</g>
<defs>
<clipPath id="clip0_26_2709">
<rect width="1933.14" height="209.8" fill="white"/>
</clipPath>
</defs>
</svg>
