<?xml version="1.0" encoding="UTF-8"?>
<svg id="Layer_1" xmlns="http://www.w3.org/2000/svg" viewBox="0 0 915.55 300">
    <defs>
        <style>
            .cls-1 {
                fill: #fff;
            }
        </style>
    </defs>
    <path class="cls-1"
        d="m682.41,190.44c-54.5,0-82.21-.17-109.01-.33-26.81-.16-54.53-.33-109.05-.33s-81.91-3.5-108.6-6.89c-26.91-3.41-54.73-6.94-109.46-6.94s-82.21-.18-109.01-.36c-26.81-.18-54.53-.37-109.06-.37-10.79,0-12.15-1.09-12.15-9.71,0-34.87-3.25-52.6-6.39-69.74C6.6,78.93,3.41,61.51,3.41,27.26c0-8.82,14.81-12.93,24.81-12.93,54.48,0,82.18.53,108.96,1.05,26.82.52,54.55,1.05,109.1,1.05s82.53-3.32,109.43-6.54c26.7-3.19,54.31-6.49,108.62-6.49s82.03,2.21,108.76,4.36c26.87,2.15,54.65,4.38,109.31,4.38s82.32-.98,109.15-1.92c26.77-.94,54.46-1.92,108.91-1.92,6.85,0,9.05,4.61,9.05,18.96,0,34.63.67,52.23,1.31,69.26.64,16.96,1.31,34.5,1.31,69,0,7.29-1.52,19.53-11.67,19.53-54.6,0-82.36,1.37-109.2,2.7-26.76,1.33-54.43,2.7-108.86,2.7Z" />
    <path
        d="m464.34,6.82c54.24,0,81.82,2.21,108.49,4.34,26.94,2.16,54.79,4.39,109.58,4.39s82.41-.98,109.27-1.92c26.74-.94,54.4-1.92,108.79-1.92,3.03,0,5.65,0,5.65,15.55,0,34.69.67,52.33,1.31,69.39.64,16.93,1.3,34.43,1.3,68.87,0,5.24-.85,9.7-2.39,12.54-1.38,2.54-3.08,3.58-5.87,3.58-54.68,0-82.48,1.38-109.37,2.71-26.72,1.32-54.35,2.69-108.69,2.69s-82.2-.17-108.99-.33c-26.81-.16-54.54-.33-109.07-.33s-81.58-3.49-108.18-6.86c-27.01-3.43-54.94-6.97-109.89-6.97s-82.2-.19-108.99-.36c-26.81-.18-54.54-.36-109.08-.36-6.27,0-7.69-.61-8-.86,0,0-.74-.96-.74-5.44,0-35.18-3.27-53.06-6.44-70.36-3.2-17.46-6.22-33.95-6.22-67.9,0-5.45,11.3-9.52,21.4-9.52,54.45,0,82.13.53,108.9,1.05,26.83.52,54.58,1.05,109.16,1.05s82.84-3.33,109.84-6.56c26.6-3.18,54.11-6.46,108.22-6.46m0-6.82c-109.03,0-109.03,13.02-218.06,13.02s-109.03-2.1-218.06-2.1C16.69,10.92,0,15.73,0,27.26c0,69.13,12.66,69.13,12.66,138.25,0,11.53,4.03,13.12,15.56,13.12,109.03,0,109.03.73,218.07.73s109.03,13.83,218.07,13.83,109.03.66,218.06.66,109.03-5.4,218.06-5.4c11.53,0,15.08-11.41,15.08-22.94,0-69.13-2.62-69.13-2.62-138.25,0-11.53-.93-22.36-12.46-22.36-109.03,0-109.03,3.84-218.07,3.84S573.37,0,464.34,0h0Z" />
</svg>