<svg width="1072" height="1072" viewBox="0 0 1072 1072" fill="none" xmlns="http://www.w3.org/2000/svg">
<g clip-path="url(#clip0_5_927)">
<path d="M448.87 630.8C448.87 630.8 416.68 707.75 388.69 763.73C360.7 819.71 342.06 910.04 397.79 938.53C482.69 982 637.9 954.6 728.78 910.71C759.57 895.84 789.44 878.67 817.03 858.43C826.22 851.68 835.17 844.6 843.8 837.14C874.46 810.68 901.18 779.79 922.92 745.61C923.52 744.66 924.12 743.71 924.72 742.76C973.59 664.55 1008.69 574.81 1008.69 518.83C1008.69 462.85 1004.58 418.31 984.56 359C969.72 315.05 945.6 262.07 902.27 216.89C851.35 163.82 828.51 110.38 802.01 72.5102C779.34 40.0702 756.78 14.9902 700.79 14.9902C644.8 14.9902 504.85 98.9602 420.88 126.95C336.91 154.94 224.94 182.93 140.97 294.9C57 406.87 57 518.83 57 574.82C57 630.81 58.74 711.56 112.98 742.77C177.5 779.91 269.03 697.03 338.17 676.82C403.86 657.62 448.87 630.8 448.87 630.8Z" fill="#FCAB40" stroke="black" stroke-width="27.99" stroke-miterlimit="10"/>
<path d="M990.87 603.65C974.04 664.6 923.83 747.3 895.39 780.97C867.24 814.34 809.49 867.16 713.14 909.82C644.07 940.29 530.89 948.42 470.23 945.22C409.29 942.03 378.81 911.85 379.98 895.01C381.14 878.18 418.29 863.67 443.54 860.47C447.89 859.89 451.96 859.31 456.02 859.02C456.6 859.02 457.47 858.73 458.34 858.73C492.58 853.51 549.47 847.41 588.35 841.61C646.68 832.9 728.81 805.91 771.76 785.02C814.13 764.42 872.17 723.79 899.45 701.15C935.15 670.97 978.39 619.02 988.54 606.54C989.12 605.67 989.7 605.09 989.99 604.8C990.28 604.51 990.57 604.22 990.57 603.93C990.86 603.93 990.86 603.64 990.86 603.64L990.87 603.65Z" fill="#BF6B04"/>
<path d="M713.37 135.08C713.37 136.48 713.09 137.88 712.81 139.28C712.53 142.64 711.97 146.28 711.13 149.92C708.89 163.07 704.69 177.91 698.81 193.86C697.41 198.06 695.73 202.26 693.77 206.46C691.53 211.78 689.29 217.38 686.49 222.98C683.97 228.3 681.17 233.9 678.09 239.49C675.29 245.37 671.93 250.97 668.57 256.57C633.3 315.07 538.13 480.78 509.86 524.16C481.59 567.55 448.84 630.81 448.84 630.81C448.84 630.81 448.56 631.09 448 631.37C447.44 631.65 446.32 632.21 445.2 632.77C442.4 634.45 438.2 636.69 432.32 639.77C429.8 640.89 427 642.57 423.92 643.97C420.56 624.38 438.48 541.24 446.87 518.85C473.46 446.35 523 369.66 560.79 305.84C592.7 252.66 649.52 164.21 668.55 126.14C682.55 98.1499 706.06 67.3599 713.06 110.47C714.18 117.19 714.18 125.59 713.34 135.1L713.37 135.08Z" fill="#BF6B04" stroke="#000002" stroke-width="27.99" stroke-miterlimit="10"/>
<path d="M747.52 901.48C747.24 901.48 746.96 901.76 746.68 901.76C679.22 926.95 603.37 939.27 533.95 946.83C499.8 950.75 464.81 951.87 431.5 943.47C415.83 939.83 400.15 933.39 389.51 921.08C378.87 908.76 374.95 889.73 383.91 876.29C387.83 870.41 393.43 866.21 399.58 862.85C434.29 843.26 478.51 844.1 517.14 839.34C558.01 834.3 598.87 829.54 639.18 820.59C696.28 807.71 751.7 786.72 803.21 758.73C841 738.58 876.55 714.5 909.3 687.07C937.01 664.12 969.48 634.45 991.59 603.94C991.59 603.66 991.87 603.66 991.87 603.66" stroke="black" stroke-width="27.99" stroke-miterlimit="10" stroke-linecap="round"/>
<path d="M448.87 630.8C448.87 630.8 416.68 707.75 388.69 763.73C360.7 819.71 342.06 910.04 397.79 938.53C482.69 982 637.9 954.6 728.78 910.71C759.57 895.84 789.44 878.67 817.03 858.43C826.22 851.68 835.17 844.6 843.8 837.14C874.46 810.68 901.18 779.79 922.92 745.61C923.52 744.66 924.12 743.71 924.72 742.76C973.59 664.55 1008.69 574.81 1008.69 518.83C1008.69 462.85 1004.58 418.31 984.56 359C969.72 315.05 945.6 262.07 902.27 216.89C851.35 163.82 828.51 110.38 802.01 72.5102C779.34 40.0702 756.78 14.9902 700.79 14.9902C644.8 14.9902 504.85 98.9602 420.88 126.95C336.91 154.94 224.94 182.93 140.97 294.9C57 406.87 57 518.83 57 574.82C57 630.81 58.74 711.56 112.98 742.77C177.5 779.91 269.03 697.03 338.17 676.82C403.86 657.62 448.87 630.8 448.87 630.8Z" stroke="black" stroke-width="27.99" stroke-miterlimit="10"/>
<path d="M178.4 349.35C178.4 349.35 236.02 225.56 406.17 198.94" stroke="#FED5A0" stroke-width="27.99" stroke-miterlimit="10" stroke-linecap="round"/>
<path d="M156.005 393C156.005 393.001 156.005 393.001 156.005 393.002C156.005 393.003 156.004 393.003 156.004 393.004C156.003 393.004 156.003 393.005 156.002 393.005C156.001 393.005 156.001 393.005 156 393.005C155.999 393.005 155.999 393.005 155.998 393.005C155.997 393.005 155.997 393.004 155.996 393.004C155.996 393.003 155.995 393.003 155.995 393.002C155.995 393.001 155.995 393.001 155.995 393C155.995 392.999 155.995 392.999 155.995 392.998C155.995 392.997 155.996 392.997 155.996 392.996C155.997 392.996 155.997 392.995 155.998 392.995C155.999 392.995 155.999 392.995 156 392.995C156.001 392.995 156.001 392.995 156.002 392.995C156.003 392.995 156.003 392.996 156.004 392.996C156.004 392.997 156.005 392.997 156.005 392.998C156.005 392.999 156.005 392.999 156.005 393Z" fill="#FED5A0" stroke="#FED5A0" stroke-width="27.99" stroke-miterlimit="10" stroke-linecap="round"/>
<path d="M866.621 736.168C862.279 729.915 853.737 728.277 847.39 732.481C819.418 751.009 787.159 770.275 761.249 782.124L761.239 782.128C732.011 795.522 684.154 811.365 637.635 822.638C633.884 823.547 630.675 825.964 628.766 829.317C626.856 832.67 626.416 836.663 627.548 840.352L627.576 840.443C627.715 840.895 627.876 841.34 628.06 841.775L640.954 836.337C628.06 841.775 628.061 841.779 628.063 841.783L628.068 841.794L628.082 841.828L628.13 841.941C628.171 842.037 628.229 842.173 628.304 842.347C628.454 842.696 628.672 843.199 628.957 843.849C629.528 845.149 630.367 847.034 631.465 849.431C633.66 854.225 636.896 861.075 641.098 869.402C649.492 886.037 661.792 908.662 677.417 932.598C708.207 979.765 753.702 1034.86 809.713 1056.41C814.678 1058.32 820.297 1057.25 824.214 1053.65L1010.15 882.774C1013.25 879.93 1014.9 875.847 1014.66 871.651C1014.41 867.455 1012.29 863.591 1008.89 861.126L1008.89 861.125L1008.87 861.116L1008.82 861.075L1008.59 860.907C1008.38 860.756 1008.07 860.528 1007.66 860.228C1006.83 859.627 1005.62 858.735 1004.05 857.58C1000.92 855.27 996.406 851.911 990.881 847.734C979.825 839.374 964.766 827.76 948.733 814.733C916.084 788.206 881.308 757.321 866.621 736.168Z" fill="#FAFAFA" stroke="black" stroke-width="28" stroke-linejoin="round"/>
<path d="M745.37 803.944C740.864 805.692 736.148 807.465 731.252 809.233C727.564 810.581 723.787 811.897 719.951 813.212C716.205 814.499 712.429 815.785 708.533 817.068C704.124 818.519 699.686 819.909 695.128 821.326L690.752 822.657C674.454 827.623 657.686 832.218 640.931 836.274L640.959 836.365C640.959 836.365 645.237 846.475 653.152 862.215C674.565 856.325 695.304 849.82 715.02 842.271C775.287 819.171 834.477 791.103 870.894 763.23C864.588 756.456 859.203 750.004 855.121 744.153L855.06 744.211C848.605 748.488 841.91 752.789 835.065 757.086L830.35 759.997C824.997 763.312 819.646 766.537 814.236 769.73L807.915 773.441C802.841 776.343 797.891 779.099 792.943 781.795L786.719 785.178C779.952 788.728 773.34 792.072 767.1 794.916C762.192 797.164 756.623 799.485 750.814 801.83L745.37 803.944Z" fill="#D6D6D6"/>
</g>
<defs>
<clipPath id="clip0_5_927">
<rect width="986" height="1072" fill="white" transform="translate(43)"/>
</clipPath>
</defs>
</svg>
