<svg width="1072" height="1072" viewBox="0 0 1072 1072" fill="none" xmlns="http://www.w3.org/2000/svg">
<path d="M605.8 44.7998C599.2 47.6998 592.5 50.6998 585.7 53.7998C529.2 79.6998 466.7 111.7 420.8 127C336.8 155 224.9 183 140.9 294.9C56.9 406.8 57 518.8 57 574.8C57 630.8 58.7 711.5 113 742.8C164.9 772.7 234.4 724.8 295.6 694.5C300.1 692.3 304.6 690.1 309 688.1C319.1 683.5 328.8 679.6 338.2 676.9C341.2 676 344.1 675.1 347 674.2" fill="#FCAB40"/>
<path d="M605.8 44.7998C599.2 47.6998 592.5 50.6998 585.7 53.7998C529.2 79.6998 466.7 111.7 420.8 127C336.8 155 224.9 183 140.9 294.9C56.9 406.8 57 518.8 57 574.8C57 630.8 58.7 711.5 113 742.8C164.9 772.7 234.4 724.8 295.6 694.5C300.1 692.3 304.6 690.1 309 688.1C319.1 683.5 328.8 679.6 338.2 676.9C341.2 676 344.1 675.1 347 674.2" stroke="black" stroke-width="27.99" stroke-miterlimit="10" stroke-linecap="round" stroke-linejoin="round"/>
<path d="M178.4 349.4C178.4 349.4 236 225.6 406.2 199" stroke="#FED5A0" stroke-width="27.99" stroke-miterlimit="10" stroke-linecap="round"/>
<path d="M625.9 95.4C625.5 111.7 622.1 127.8 617.7 143.4C607.4 179.5 591.7 213.7 574.4 247.2C566.6 262.3 558.4 277.2 550.3 292.2C540.8 309.5 531.4 326.9 521.9 344.2C501.3 381.9 481.4 419.9 460.9 457.7C454.4 469.7 448.4 483.3 442.5 497.8C412.8 570.9 388.1 665.3 340 673.3L335 673.7C314.2 667.1 341.2 550.1 381 446.7C394.5 411.5 409.6 377.9 424.7 350.8C451.7 302.5 480.7 255.2 508.3 207.2C527.3 174.2 545.6 140.8 562.3 106.5C568.3 94.1 574.1 81.5 581.6 69.9C587.3 61 597.8 40.6 611.1 44.8C619.3 47.4 622.2 59.6 623.8 67C625.8 76.4 626.2 86 625.9 95.4Z" fill="#BF6B04" stroke="#000002" stroke-width="33.05" stroke-miterlimit="10" stroke-linecap="round"/>
<path d="M442.8 642.1C438.5 653.6 434.2 665.2 429.4 676.6C417 706.2 403 735 388.7 763.7C360.7 819.7 342.1 910 397.8 938.5C482.7 982 637.9 954.6 728.8 910.7C759.6 895.8 789.5 878.7 817 858.4C826.2 851.6 835.1 844.6 843.8 837.1C874.5 810.6 901.2 779.7 922.9 745.6C923.5 744.6 924.1 743.7 924.7 742.8C973.6 664.6 1008.7 574.8 1008.7 518.9C1008.7 463 1004.6 418.4 984.6 359.1C984.6 348 974.5 331.3 970.1 321.2C964.2 307.5 957.5 294.2 950.1 281.3C940.9 265.3 929.8 250.5 918.2 236.1C910.4 226.5 903.9 212.3 893.3 205.3C891.2 203.9 889.1 203.1 887.1 202.7C886.8 202.6 886.5 202.6 886.1 202.5" fill="#FCAB40"/>
<path d="M442.8 642.1C438.5 653.6 434.2 665.2 429.4 676.6C417 706.2 403 735 388.7 763.7C360.7 819.7 342.1 910 397.8 938.5C482.7 982 637.9 954.6 728.8 910.7C759.6 895.8 789.5 878.7 817 858.4C826.2 851.6 835.1 844.6 843.8 837.1C874.5 810.6 901.2 779.7 922.9 745.6C923.5 744.6 924.1 743.7 924.7 742.8C973.6 664.6 1008.7 574.8 1008.7 518.9C1008.7 463 1004.6 418.4 984.6 359.1C984.6 348 974.5 331.3 970.1 321.2C964.2 307.5 957.5 294.2 950.1 281.3C940.9 265.3 929.8 250.5 918.2 236.1C910.4 226.5 903.9 212.3 893.3 205.3C891.2 203.9 889.1 203.1 887.1 202.7C886.8 202.6 886.5 202.6 886.1 202.5" stroke="black" stroke-width="27.99" stroke-miterlimit="10"/>
<path d="M990.87 603.65C974.04 664.6 923.83 747.3 895.39 780.97C867.24 814.34 809.49 867.16 713.14 909.82C644.07 940.29 530.89 948.42 470.23 945.22C409.29 942.03 378.81 911.85 379.98 895.01C381.14 878.18 418.29 863.67 443.54 860.47C447.89 859.89 451.96 859.31 456.02 859.02C456.6 859.02 457.47 858.73 458.34 858.73C492.58 853.51 549.47 847.41 588.35 841.61C646.68 832.9 728.81 805.91 771.76 785.02C814.13 764.42 872.17 723.79 899.45 701.15C935.15 670.97 978.39 619.02 988.54 606.54C989.12 605.67 989.7 605.09 989.99 604.8C990.28 604.51 990.57 604.22 990.57 603.93C990.86 603.93 990.86 603.64 990.86 603.64L990.87 603.65Z" fill="#BF6B04"/>
<path d="M747.5 901.5C747.2 901.5 746.9 901.8 746.7 901.8C679.2 927 603.4 939.3 534 946.8C499.8 950.7 464.9 951.8 431.5 943.4C415.8 939.8 400.1 933.3 389.5 921C378.9 908.7 374.9 889.6 383.9 876.2C387.8 870.3 393.4 866.1 399.6 862.8C434.3 843.2 478.5 844 517.2 839.3C558.1 834.3 598.9 829.5 639.2 820.5C696.3 807.6 751.7 786.6 803.2 758.6C841 738.5 876.5 714.4 909.3 686.9C937 663.9 969.5 634.3 991.6 603.8C991.6 603.5 991.9 603.5 991.9 603.5" stroke="black" stroke-width="27.99" stroke-miterlimit="10" stroke-linecap="round"/>
<path d="M897.9 227.8C897.9 230.3 897.7 232.8 897.5 235.3C892.5 286.1 842.6 326.1 807.9 358.1C789 375.6 769.2 391.9 749.2 408.1C727.3 425.9 705.1 443.4 683.8 461.8C637.8 501.5 591.7 541.3 546.3 581.9C520.3 605.2 494.6 628.7 469.4 652.7C464 657.8 445.2 673 440.8 659.2C439.8 656.2 440.3 652.9 440.9 649.8C444.6 630.3 452.6 612.8 461.2 595.2C472.1 573 486 553.2 501.7 534.8C517.4 516.4 534.8 499.4 552.5 482.5C591 446 632.3 412.5 672.5 377.9C683.1 368.9 695.4 358.6 708.5 347.8C712.8 344.3 717.1 340.7 721.5 337C769.1 297.7 823.3 253.3 846.4 229.9C861.8 214.4 898.3 184 897.9 227.8Z" fill="#BF6B04" stroke="#000002" stroke-width="32.1767" stroke-miterlimit="10" stroke-linecap="round" stroke-linejoin="round"/>
<path d="M749.2 408.1C727.3 425.9 705.1 443.4 683.8 461.8C637.8 501.5 591.7 541.3 546.3 581.9C545.8 581.4 545.4 580.9 545 580.3C536.2 567.6 520.2 551.5 501.8 534.8C489.5 523.7 476 512.3 462.9 501.7C446.9 488.7 431.8 477.1 420.8 468.7C415.3 464.5 410.8 461.2 407.6 458.9C406 457.7 404.8 456.9 404 456.3C403.6 456 403.3 455.8 403.1 455.6L402.9 455.4H402.8C399.4 452.9 397.3 449.1 397 444.9C396.8 440.7 398.4 436.6 401.5 433.8L587.4 262.9C591.3 259.3 596.9 258.2 601.9 260.1C644 276.3 680.1 311.4 708.5 347.9C717.9 360 726.5 372.2 734.2 384C739.6 392.2 744.6 400.4 749.2 408.1Z" fill="#FAFAFA" stroke="black" stroke-width="28" stroke-linecap="round" stroke-linejoin="round"/>
<path d="M643.8 477.6C648.1 474.2 652.7 470.8 657.5 467.2C661.1 464.5 664.8 461.9 668.5 459.2C672.2 456.6 675.9 453.9 679.7 451.3C684 448.3 688.4 445.3 692.9 442.3L697.2 439.4C713.4 428.7 730.2 418.2 747.1 408.3L747 408.2C747 408.2 739 398.6 725.3 384C703.9 397.4 683.4 411.2 664.3 425.9C606.1 470.7 550.6 520.6 520 562.8C529.1 568.1 537.1 573.4 543.4 578.5V578.4C549 571.6 555 564.8 561 557.9L565.2 553.2C570 547.8 574.7 542.6 579.6 537.3L585.3 531.2C589.9 526.4 594.4 521.8 598.9 517.2L604.6 511.5C610.8 505.4 617 499.6 622.8 494.5C627.4 490.5 632.7 486.1 638.3 481.7L643.8 477.6Z" fill="#EEEEEE"/>
<path d="M749.6 408C727.7 425.8 705.5 443.3 684.2 461.7C638.2 501.4 592.1 541.2 546.7 581.8C546.2 581.3 545.8 580.8 545.4 580.2C536.6 567.5 520.6 551.4 502.2 534.7C489.9 523.6 476.4 512.2 463.3 501.6C447.3 488.6 432.2 477 421.2 468.6C415.7 464.4 411.2 461.1 408 458.8C406.4 457.6 405.2 456.8 404.4 456.2C404 455.9 403.7 455.7 403.5 455.5L403.3 455.3H403.2C399.8 452.8 397.7 449 397.4 444.8C397.2 440.6 398.8 436.5 401.9 433.7L587.8 262.8C591.7 259.2 597.3 258.1 602.3 260C644.4 276.2 680.5 311.3 708.9 347.8C718.3 359.9 726.9 372.1 734.6 383.9C740 392.1 745 400.3 749.6 408Z" stroke="black" stroke-width="28" stroke-linecap="round" stroke-linejoin="round"/>
<path d="M388.69 763.73C360.7 819.71 342.06 910.04 397.79 938.53C482.69 982 637.9 954.6 728.78 910.71C759.57 895.84 789.44 878.67 817.03 858.43C826.22 851.68 835.17 844.6 843.8 837.14C874.46 810.68 901.18 779.79 922.92 745.61C923.52 744.66 924.12 743.71 924.72 742.76C973.59 664.55 1008.69 574.81 1008.69 518.83C1008.69 462.85 1004.58 418.31 984.56 359C969.72 315.05 945.6 262.07 902.27 216.89" stroke="black" stroke-width="27.99" stroke-miterlimit="10"/>
<path d="M866.6 736.2C862.3 729.9 853.7 728.3 847.4 732.5C819.4 751 787.2 770.3 761.3 782.1C732.1 795.5 684.2 811.3 637.7 822.6C633.9 823.5 630.7 825.9 628.8 829.3C626.9 832.7 626.5 836.6 627.6 840.3V840.4C627.7 840.9 627.9 841.3 628.1 841.7L641 836.3C628.1 841.7 628.1 841.7 628.1 841.7V841.8C628.1 841.9 628.2 842 628.3 842.2C628.4 842.5 628.7 843.1 629 843.7C629.6 845 630.4 846.9 631.5 849.3C633.7 854.1 636.9 860.9 641.1 869.3C649.5 885.9 661.8 908.6 677.4 932.5C708.2 979.7 753.7 1034.8 809.7 1056.3C814.7 1058.2 820.3 1057.1 824.2 1053.5L1010.1 882.6C1013.2 879.8 1014.8 875.7 1014.6 871.5C1014.4 867.3 1012.2 863.4 1008.8 861H1008.7L1008.5 860.8C1008.3 860.6 1008 860.4 1007.6 860.1C1006.8 859.5 1005.6 858.6 1004 857.5C1000.9 855.2 996.4 851.8 990.8 847.7C979.7 839.3 964.7 827.7 948.7 814.7C916.1 788.2 881.3 757.3 866.6 736.2Z" fill="#FAFAFA"/>
<path d="M628.1 841.7C627.9 841.3 627.7 840.9 627.6 840.4V840.3C626.5 836.6 626.9 832.7 628.8 829.3C630.7 825.9 633.9 823.5 637.7 822.6C684.2 811.3 732.1 795.5 761.3 782.1C787.2 770.3 819.4 751 847.4 732.5C853.7 728.3 862.3 729.9 866.6 736.2C881.3 757.3 916.1 788.2 948.7 814.7C964.7 827.7 979.7 839.3 990.8 847.7C996.4 851.8 1000.9 855.2 1004 857.5C1005.6 858.6 1006.8 859.5 1007.6 860.1C1008 860.4 1008.3 860.6 1008.5 860.8L1008.7 861H1008.8C1012.2 863.4 1014.4 867.3 1014.6 871.5C1014.8 875.7 1013.2 879.8 1010.1 882.6L824.2 1053.5C820.3 1057.1 814.7 1058.2 809.7 1056.3C753.7 1034.8 708.2 979.7 677.4 932.5C661.8 908.6 649.5 885.9 641.1 869.3C636.9 860.9 633.7 854.1 631.5 849.3C630.4 846.9 629.6 845 629 843.7C628.7 843.1 628.4 842.5 628.3 842.2C628.2 842 628.1 841.9 628.1 841.8V841.7ZM628.1 841.7L641 836.3C628.1 841.7 628.1 841.7 628.1 841.7Z" stroke="black" stroke-width="28" stroke-linecap="round" stroke-linejoin="round"/>
<path d="M745.4 803.9C740.9 805.6 736.2 807.4 731.3 809.2C727.6 810.5 723.8 811.9 720 813.2C716.3 814.5 712.5 815.8 708.6 817.1C704.2 818.6 699.8 819.9 695.2 821.4L690.8 822.7C674.5 827.7 657.7 832.3 641 836.3V836.4C641 836.4 645.3 846.5 653.2 862.3C674.6 856.4 695.4 849.9 715.1 842.4C775.4 819.3 834.6 791.2 871 763.4C864.7 756.6 859.3 750.2 855.2 744.3L855.1 744.4C848.6 748.7 841.9 753 835.1 757.3L830.4 760.2C825 763.5 819.7 766.7 814.3 769.9L808 773.6C802.9 776.5 798 779.3 793 782L786.8 785.4C780 789 773.4 792.3 767.2 795.1C762.3 797.3 756.7 799.7 750.9 802L745.4 803.9Z" fill="#D6D6D6"/>
<path d="M156.005 393C156.005 393.001 156.005 393.001 156.005 393.002C156.005 393.003 156.004 393.003 156.004 393.004C156.003 393.004 156.003 393.005 156.002 393.005C156.001 393.005 156.001 393.005 156 393.005C155.999 393.005 155.999 393.005 155.998 393.005C155.997 393.005 155.997 393.004 155.996 393.004C155.996 393.003 155.995 393.003 155.995 393.002C155.995 393.001 155.995 393.001 155.995 393C155.995 392.999 155.995 392.999 155.995 392.998C155.995 392.997 155.996 392.997 155.996 392.996C155.997 392.996 155.997 392.995 155.998 392.995C155.999 392.995 155.999 392.995 156 392.995C156.001 392.995 156.001 392.995 156.002 392.995C156.003 392.995 156.003 392.996 156.004 392.996C156.004 392.997 156.005 392.997 156.005 392.998C156.005 392.999 156.005 392.999 156.005 393Z" fill="#FED5A0" stroke="#FED5A0" stroke-width="27.99" stroke-miterlimit="10" stroke-linecap="round"/>
</svg>
