<svg width="3227" height="1160" viewBox="0 0 3227 1160" fill="none" xmlns="http://www.w3.org/2000/svg">
<g clip-path="url(#clip0_12_1265)">
<g clip-path="url(#clip1_12_1265)">
<g clip-path="url(#clip2_12_1265)">
<path d="M438.838 714.311C438.838 714.311 427.661 796.97 415.114 858.287C402.566 919.604 407.94 1011.68 469.145 1024.78C562.403 1044.79 705.233 978.153 781.657 912.237C807.549 889.905 831.957 865.589 853.368 838.897C860.498 829.999 867.311 820.844 873.716 811.404C896.483 777.911 914.298 741.157 926.45 702.515C926.784 701.442 927.118 700.37 927.451 699.297C954.414 611.103 965.092 515.336 950.603 461.264C936.114 407.191 920.616 365.233 885.928 313.125C860.219 274.514 823.208 229.582 769.661 197.156C706.741 159.073 670.848 113.365 635.449 83.6445C605.156 58.1773 576.873 39.7908 522.791 54.2821C468.709 68.7734 355.26 186.104 281.396 234.873C207.532 283.643 106.621 339.659 54.4923 469.546C2.36351 599.434 31.3409 707.579 45.8322 761.661C60.3234 815.744 82.9038 893.292 143.373 909.4C215.307 928.576 282.268 824.83 343.821 787.414C402.303 751.866 438.838 714.311 438.838 714.311Z" fill="#FCAB40" stroke="black" stroke-width="27.99" stroke-miterlimit="10"/>
<path d="M955.343 547.806C954.861 611.035 927.767 703.913 909.01 743.796C890.456 783.315 848.345 849.282 766.319 915.426C707.489 962.734 600.269 999.88 540.848 1012.49C481.159 1025.18 443.906 1003.92 440.678 987.348C437.443 970.792 469.571 947.161 493.133 937.535C497.184 935.849 500.966 934.235 504.812 932.904C505.372 932.754 506.138 932.249 506.978 932.024C538.7 918.119 592.073 897.503 628.127 881.838C682.215 858.328 754.561 811.001 790.641 779.706C826.236 748.842 871.782 694.574 892.273 665.645C918.945 627.254 947.266 565.883 953.84 551.201C954.175 550.21 954.586 549.5 954.791 549.145C954.996 548.79 955.201 548.435 955.126 548.154C955.406 548.079 955.331 547.799 955.331 547.799L955.343 547.806Z" fill="#BF6B04"/>
<path d="M566.024 167.025C566.386 168.377 566.478 169.802 566.57 171.226C567.169 174.544 567.57 178.205 567.701 181.939C568.941 195.22 568.725 210.642 567.173 227.57C566.908 231.989 566.373 236.481 565.566 241.045C564.78 246.764 564.065 252.753 562.81 258.887C561.753 264.677 560.498 270.811 558.969 277.008C557.787 283.412 555.991 289.691 554.194 295.97C535.267 361.605 486.229 546.301 470.15 595.519C454.073 644.748 438.812 714.328 438.812 714.328C438.812 714.328 438.614 714.671 438.146 715.087C437.677 715.502 436.74 716.333 435.803 717.164C433.534 719.511 430.056 722.762 425.174 727.259C423.03 728.993 420.76 731.34 418.147 733.49C409.831 715.437 405.623 630.492 407.932 606.693C414.851 529.782 442.854 442.883 462.839 371.457C479.898 311.83 511.889 211.688 520.417 169.99C526.696 139.33 541.436 103.504 559.355 143.333C562.176 149.535 564.35 157.648 566 167.052L566.024 167.025Z" fill="#BF6B04" stroke="#000002" stroke-width="27.99" stroke-miterlimit="10"/>
<path d="M797.369 898.471C797.099 898.543 796.901 898.886 796.63 898.959C737.989 940.751 667.912 972.282 602.814 997.552C570.842 1010.18 537.334 1020.31 502.985 1020.82C486.907 1021.36 470.095 1019.2 456.631 1010.06C443.165 1000.92 434.453 983.55 439.629 968.249C441.894 961.554 446.216 956.048 451.287 951.211C479.744 923.305 522.675 912.671 558.756 898.075C596.929 882.629 635.165 867.456 671.785 848.378C723.606 821.158 771.705 786.54 814.215 746.171C845.502 716.927 873.609 684.467 898.143 649.495C918.969 620.155 942.654 583.092 956.114 547.9C956.041 547.629 956.312 547.557 956.312 547.557" stroke="black" stroke-width="27.99" stroke-miterlimit="10" stroke-linecap="round"/>
<path d="M438.838 714.311C438.838 714.311 427.661 796.97 415.114 858.287C402.566 919.604 407.94 1011.68 469.145 1024.78C562.403 1044.79 705.233 978.153 781.657 912.237C807.549 889.905 831.957 865.589 853.368 838.897C860.498 829.999 867.311 820.844 873.716 811.404C896.483 777.911 914.298 741.157 926.45 702.515C926.784 701.442 927.118 700.37 927.451 699.297C954.414 611.103 965.092 515.336 950.603 461.264C936.114 407.191 920.616 365.233 885.928 313.125C860.219 274.514 823.208 229.582 769.661 197.156C706.741 159.073 670.848 113.365 635.449 83.6445C605.156 58.1773 576.873 39.7908 522.791 54.2821C468.709 68.7734 355.26 186.104 281.396 234.873C207.532 283.643 106.621 339.659 54.4923 469.546C2.36351 599.434 31.3409 707.579 45.8322 761.661C60.3234 815.744 82.9038 893.292 143.373 909.4C215.307 928.576 282.268 824.83 343.821 787.414C402.303 751.866 438.838 714.311 438.838 714.311Z" stroke="black" stroke-width="27.99" stroke-miterlimit="10"/>
<path d="M104.74 512.454C104.74 512.454 128.357 377.969 285.82 308.218" stroke="#FED5A0" stroke-width="27.99" stroke-miterlimit="10" stroke-linecap="round"/>
<path d="M94.4052 560.413C94.4053 560.414 94.4055 560.414 94.4057 560.415C94.4054 560.415 94.405 560.416 94.4047 560.417C94.4043 560.417 94.404 560.418 94.4036 560.418C94.403 560.419 94.4023 560.419 94.4016 560.419C94.401 560.419 94.4003 560.419 94.3997 560.419C94.3991 560.419 94.3985 560.419 94.3978 560.418C94.3972 560.418 94.3966 560.418 94.396 560.417C94.3959 560.417 94.3957 560.416 94.3955 560.415C94.3953 560.415 94.3951 560.414 94.395 560.413C94.3953 560.413 94.3956 560.412 94.396 560.412C94.3964 560.411 94.3967 560.41 94.3971 560.41C94.3977 560.41 94.3984 560.409 94.399 560.409C94.3997 560.409 94.4004 560.409 94.401 560.409C94.4016 560.409 94.4022 560.409 94.4028 560.41C94.4035 560.41 94.4041 560.411 94.4046 560.411C94.4048 560.412 94.405 560.412 94.4052 560.413Z" fill="#FED5A0" stroke="#FED5A0" stroke-width="27.99" stroke-miterlimit="10" stroke-linecap="round"/>
<path d="M869.626 707.967C863.814 703.051 855.138 703.68 850.096 709.383C827.873 734.519 801.699 761.479 779.739 779.629L779.73 779.636C754.965 800.138 712.839 827.827 670.822 850.757C667.435 852.605 664.961 855.77 663.984 859.504C663.008 863.237 663.616 867.208 665.664 870.478L665.715 870.558C665.966 870.959 666.237 871.347 666.527 871.72L677.575 863.13C666.527 871.72 666.529 871.723 666.532 871.726L666.54 871.736L666.562 871.765L666.638 871.862C666.702 871.944 666.793 872.06 666.911 872.209C667.146 872.507 667.487 872.937 667.931 873.491C668.818 874.599 670.116 876.202 671.797 878.234C675.159 882.296 680.057 888.075 686.271 895.031C698.685 908.926 716.421 927.597 737.709 946.673C779.657 984.264 837.862 1025.71 897.542 1032.03C902.832 1032.59 907.983 1030.1 910.835 1025.61L1046.21 812.429C1048.46 808.881 1049 804.509 1047.68 800.519C1046.36 796.53 1043.31 793.346 1039.39 791.846L1039.39 791.845L1039.37 791.839L1039.31 791.815L1039.04 791.712C1038.8 791.62 1038.44 791.481 1037.96 791.297C1037.01 790.93 1035.61 790.383 1033.8 789.672C1030.18 788.251 1024.95 786.176 1018.53 783.57C1005.68 778.357 988.133 771.037 969.274 762.603C930.872 745.43 889.288 724.598 869.626 707.967Z" fill="#FAFAFA" stroke="black" stroke-width="28" stroke-linejoin="round"/>
<path d="M770.049 804.816C766.149 807.67 762.052 810.603 757.78 813.578C754.567 815.835 751.26 818.084 747.894 820.347C744.609 822.559 741.294 824.779 737.863 827.027C733.98 829.569 730.053 832.06 726.017 834.609L722.135 837.027C707.678 846.042 692.67 854.821 677.536 863.075L677.586 863.155C677.586 863.155 684.335 871.814 696.054 884.969C715.213 873.738 733.562 862.086 750.652 849.691C802.887 811.781 852.795 769.35 880.758 733.001C872.913 728.09 866.042 723.251 860.585 718.656L860.541 718.728C855.412 724.53 850.058 730.417 844.559 736.339L840.759 740.371C836.446 744.959 832.112 749.459 827.713 753.944L822.567 759.164C818.418 763.281 814.35 767.224 810.267 771.108L805.131 775.987C799.514 781.168 793.993 786.109 788.701 790.472C784.542 793.913 779.764 797.596 774.76 801.365L770.049 804.816Z" fill="#D6D6D6"/>
</g>
</g>
<g clip-path="url(#clip3_12_1265)">
<g clip-path="url(#clip4_12_1265)">
<path d="M2750.52 725.854C2750.52 725.854 2739.92 808.589 2736.17 871.064C2732.42 933.539 2703.4 1021.09 2640.89 1017.9C2545.63 1013.09 2424.92 911.758 2368.16 828.308C2348.93 800.035 2331.64 770.23 2317.87 738.907C2313.29 728.466 2309.07 717.86 2305.33 707.084C2292.01 668.839 2284.31 628.728 2282.58 588.257C2282.53 587.134 2282.49 586.011 2282.44 584.889C2279.22 492.722 2293.7 397.455 2321.69 348.975C2349.68 300.495 2375.51 263.977 2422.5 222.623C2457.33 191.981 2504.7 158.159 2564.82 140.697C2635.45 120.197 2681.95 85.3366 2723.84 65.7902C2759.69 49.0314 2791.77 38.5915 2840.26 66.5865C2888.75 94.5815 2967.96 237.277 3026.69 303.502C3085.41 369.727 3168.38 449.952 3185.12 588.906C3201.85 727.859 3145.87 824.82 3117.88 873.308C3089.88 921.797 3048 990.859 2985.42 990.767C2910.98 990.672 2873.15 873.13 2823.38 821.058C2776.09 771.585 2750.52 725.854 2750.52 725.854Z" fill="#FCAB40" stroke="black" stroke-width="27.99" stroke-miterlimit="10"/>
<path d="M2294.71 431.341C2278.81 492.541 2280.94 589.266 2288.74 632.645C2296.43 675.619 2320.03 750.238 2382.15 835.357C2426.73 896.28 2520.68 959.911 2574.81 987.47C2629.18 1015.18 2670.67 1004.28 2678.08 989.112C2685.49 973.956 2660.57 942.815 2640.3 927.419C2636.82 924.742 2633.59 922.204 2630.22 919.923C2629.72 919.633 2629.11 918.947 2628.35 918.512C2601.31 896.871 2555.09 863.144 2524.32 838.681C2478.16 801.973 2420.53 737.534 2393.78 697.967C2367.39 658.942 2337.44 594.736 2325.13 561.489C2309.3 517.502 2297.83 450.892 2295.28 435.009C2295.22 433.966 2295 433.173 2294.9 432.777C2294.79 432.381 2294.68 431.985 2294.83 431.734C2294.58 431.589 2294.72 431.338 2294.72 431.338L2294.71 431.341Z" fill="#BF6B04"/>
<path d="M2769.32 164.298C2768.62 165.511 2768.16 166.863 2767.7 168.215C2766.26 171.265 2764.93 174.698 2763.84 178.27C2759.2 190.778 2755.42 205.73 2752.54 222.483C2751.65 226.82 2751 231.298 2750.6 235.915C2749.88 241.642 2749.02 247.612 2748.65 253.862C2748.17 259.729 2747.79 265.979 2747.67 272.36C2747.15 278.852 2747.26 285.382 2747.37 291.912C2748.66 360.209 2748.23 551.303 2751.02 603.006C2753.81 654.718 2750.54 725.878 2750.54 725.878C2750.54 725.878 2750.64 726.26 2750.99 726.783C2751.33 727.305 2752.02 728.35 2752.71 729.395C2754.3 732.25 2756.82 736.29 2760.37 741.898C2761.99 744.127 2763.58 746.982 2765.54 749.735C2778.25 734.449 2804.3 653.488 2808.23 629.903C2821.45 553.821 2816.89 462.635 2816.07 388.471C2815.03 326.46 2810.05 221.45 2812.6 178.966C2814.47 147.726 2809.51 109.306 2781.89 143.14C2777.56 148.4 2773.36 155.675 2769.33 164.33L2769.32 164.298Z" fill="#BF6B04" stroke="#000002" stroke-width="27.99" stroke-miterlimit="10"/>
<path d="M2356.54 810.945C2356.78 811.085 2356.89 811.467 2357.13 811.607C2402.96 867.152 2462.48 915.747 2518.82 957.004C2546.44 977.474 2576.18 995.939 2609.23 1005.32C2624.62 1010 2641.42 1012.26 2656.79 1006.92C2672.16 1001.57 2685.07 987.054 2684.03 970.934C2683.58 963.882 2680.83 957.445 2677.18 951.46C2656.92 917.14 2618.2 895.757 2587.13 872.32C2554.25 847.52 2521.25 822.968 2490.81 795.062C2447.8 755.357 2410.3 709.469 2379.69 659.474C2357.04 623.129 2338.29 584.5 2323.64 544.37C2311.12 510.64 2297.83 468.71 2293.94 431.232C2294.08 430.99 2293.84 430.85 2293.84 430.85" stroke="black" stroke-width="27.99" stroke-miterlimit="10" stroke-linecap="round"/>
<path d="M2750.52 725.854C2750.52 725.854 2739.92 808.589 2736.17 871.064C2732.42 933.539 2703.4 1021.09 2640.89 1017.9C2545.63 1013.09 2424.92 911.758 2368.16 828.308C2348.93 800.035 2331.64 770.23 2317.87 738.907C2313.29 728.466 2309.07 717.86 2305.33 707.084C2292.01 668.839 2284.31 628.728 2282.58 588.257C2282.53 587.134 2282.49 586.011 2282.44 584.889C2279.22 492.722 2293.7 397.455 2321.69 348.975C2349.68 300.495 2375.51 263.977 2422.5 222.623C2457.33 191.981 2504.7 158.159 2564.82 140.697C2635.45 120.197 2681.95 85.3366 2723.84 65.7902C2759.69 49.0314 2791.77 38.5915 2840.26 66.5865C2888.75 94.5815 2967.96 237.277 3026.69 303.502C3085.41 369.727 3168.38 449.952 3185.12 588.906C3201.85 727.859 3145.87 824.82 3117.88 873.308C3089.88 921.797 3048 990.859 2985.42 990.767C2910.98 990.672 2873.15 873.13 2823.38 821.058C2776.09 771.585 2750.52 725.854 2750.52 725.854Z" stroke="black" stroke-width="27.99" stroke-miterlimit="10"/>
<path d="M2376.41 375.547C2376.41 375.547 2420.19 246.21 2586.42 201.19" stroke="#FED5A0" stroke-width="27.99" stroke-miterlimit="10" stroke-linecap="round"/>
<path d="M2358.91 421.379C2358.91 421.38 2358.91 421.38 2358.91 421.381C2358.91 421.382 2358.91 421.382 2358.91 421.383C2358.91 421.383 2358.91 421.384 2358.91 421.384C2358.91 421.384 2358.91 421.385 2358.91 421.385C2358.91 421.385 2358.91 421.385 2358.91 421.385C2358.9 421.384 2358.9 421.384 2358.9 421.384C2358.9 421.383 2358.9 421.383 2358.9 421.382C2358.9 421.382 2358.9 421.381 2358.9 421.38C2358.9 421.379 2358.9 421.379 2358.9 421.378C2358.9 421.378 2358.9 421.377 2358.9 421.376C2358.9 421.376 2358.9 421.375 2358.9 421.375C2358.9 421.375 2358.91 421.375 2358.91 421.375C2358.91 421.375 2358.91 421.375 2358.91 421.374C2358.91 421.375 2358.91 421.375 2358.91 421.376C2358.91 421.376 2358.91 421.377 2358.91 421.377C2358.91 421.378 2358.91 421.378 2358.91 421.379Z" fill="#FED5A0" stroke="#FED5A0" stroke-width="27.99" stroke-miterlimit="10" stroke-linecap="round"/>
<path d="M2336.05 608.229C2342.94 604.985 2351.16 607.838 2354.55 614.652C2369.51 644.683 2387.82 677.498 2404.33 700.714L2404.34 700.723C2422.95 726.936 2456.48 764.585 2491.13 797.608C2493.92 800.27 2495.49 803.968 2495.47 807.826C2495.44 811.685 2493.83 815.363 2491 817.992L2490.94 818.057C2490.59 818.379 2490.23 818.683 2489.85 818.968L2481.4 807.812C2489.85 818.968 2489.85 818.971 2489.84 818.973L2489.83 818.981L2489.8 819.003L2489.71 819.077C2489.62 819.14 2489.5 819.228 2489.35 819.341C2489.05 819.568 2488.61 819.896 2488.04 820.316C2486.89 821.156 2485.22 822.369 2483.07 823.896C2478.78 826.95 2472.55 831.264 2464.75 836.375C2449.16 846.584 2427.19 860.028 2401.69 872.945C2351.45 898.398 2284.5 923.363 2225.22 914.022C2219.96 913.193 2215.63 909.459 2214.04 904.383L2138.45 663.429C2137.19 659.418 2137.8 655.055 2140.11 651.544C2142.42 648.033 2146.19 645.745 2150.37 645.312L2150.37 645.312L2150.38 645.311L2150.45 645.303L2150.74 645.273C2150.99 645.246 2151.38 645.206 2151.88 645.151C2152.9 645.042 2154.4 644.878 2156.33 644.66C2160.19 644.224 2165.79 643.574 2172.66 642.718C2186.41 641.006 2205.26 638.478 2225.66 635.213C2267.2 628.564 2312.76 619.205 2336.05 608.229Z" fill="#FAFAFA" stroke="black" stroke-width="28" stroke-linejoin="round"/>
<path d="M2407.17 727.551C2410.2 731.317 2413.4 735.211 2416.75 739.19C2419.27 742.201 2421.89 745.23 2424.55 748.286C2427.15 751.274 2429.78 754.276 2432.51 757.335C2435.6 760.796 2438.75 764.218 2441.99 767.724L2445.12 771.066C2456.75 783.515 2468.97 795.879 2481.45 807.769L2481.38 807.833C2481.38 807.833 2472.62 814.45 2457.9 824.124C2442.3 808.316 2427.59 792.313 2414.29 775.917C2373.65 725.779 2336.42 671.877 2318.82 629.529C2327.67 626.816 2335.56 623.921 2342.02 620.894L2342.04 620.975C2345.5 627.907 2349.14 634.979 2352.92 642.123L2355.55 647.001C2358.53 652.548 2361.55 658.017 2364.64 663.488L2368.26 669.862C2371.2 674.912 2374.11 679.774 2377.05 684.582L2380.75 690.624C2384.83 697.082 2388.89 703.285 2392.87 708.868C2395.99 713.268 2399.66 718.062 2403.51 722.998L2407.17 727.551Z" fill="#D6D6D6"/>
</g>
</g>
<g clip-path="url(#clip5_12_1265)">
<g clip-path="url(#clip6_12_1265)">
<path d="M1680.26 108.989C1673.66 111.889 1666.96 114.889 1660.16 117.989C1603.66 143.889 1541.16 175.889 1495.26 191.189C1411.26 219.189 1299.36 247.189 1215.36 359.089C1131.36 470.989 1131.46 582.989 1131.46 638.989C1131.46 694.989 1133.16 775.689 1187.46 806.989C1239.36 836.889 1308.86 788.989 1370.06 758.689C1374.56 756.489 1379.06 754.289 1383.46 752.289C1393.56 747.689 1403.26 743.789 1412.66 741.089C1415.66 740.189 1418.56 739.289 1421.46 738.389" fill="#FCAB40"/>
<path d="M1680.26 108.989C1673.66 111.889 1666.96 114.889 1660.16 117.989C1603.66 143.889 1541.16 175.889 1495.26 191.189C1411.26 219.189 1299.36 247.189 1215.36 359.089C1131.36 470.989 1131.46 582.989 1131.46 638.989C1131.46 694.989 1133.16 775.689 1187.46 806.989C1239.36 836.889 1308.86 788.989 1370.06 758.689C1374.56 756.489 1379.06 754.289 1383.46 752.289C1393.56 747.689 1403.26 743.789 1412.66 741.089C1415.66 740.189 1418.56 739.289 1421.46 738.389" stroke="black" stroke-width="27.99" stroke-miterlimit="10" stroke-linecap="round" stroke-linejoin="round"/>
<path d="M1197.53 558.364C1197.53 558.364 1194.89 421.846 1336.11 323.189" stroke="#FED5A0" stroke-width="27.99" stroke-miterlimit="10" stroke-linecap="round"/>
<path d="M1700.36 159.589C1699.96 175.889 1696.56 191.989 1692.16 207.589C1681.86 243.689 1666.16 277.889 1648.86 311.389C1641.06 326.489 1632.86 341.389 1624.76 356.389C1615.26 373.689 1605.86 391.089 1596.36 408.389C1575.76 446.089 1555.86 484.089 1535.36 521.889C1528.86 533.889 1522.86 547.489 1516.96 561.989C1487.26 635.089 1462.56 729.489 1414.46 737.489L1409.46 737.889C1388.66 731.289 1415.66 614.289 1455.46 510.889C1468.96 475.689 1484.06 442.089 1499.16 414.989C1526.16 366.689 1555.16 319.389 1582.76 271.389C1601.76 238.389 1620.06 204.989 1636.76 170.689C1642.76 158.289 1648.56 145.689 1656.06 134.089C1661.76 125.189 1672.26 104.789 1685.56 108.989C1693.76 111.589 1696.66 123.789 1698.26 131.189C1700.26 140.589 1700.66 150.189 1700.36 159.589Z" fill="#BF6B04" stroke="#000002" stroke-width="33.05" stroke-miterlimit="10" stroke-linecap="round"/>
</g>
<g clip-path="url(#clip7_12_1265)">
<path d="M1517.26 706.289C1512.96 717.789 1508.66 729.389 1503.86 740.789C1491.46 770.389 1477.46 799.189 1463.16 827.889C1435.16 883.889 1416.56 974.189 1472.26 1002.69C1557.16 1046.19 1712.36 1018.79 1803.26 974.889C1834.06 959.989 1863.96 942.889 1891.46 922.589C1900.66 915.789 1909.56 908.789 1918.26 901.289C1948.96 874.789 1975.66 843.889 1997.36 809.789C1997.96 808.789 1998.56 807.889 1999.16 806.989C2048.06 728.789 2083.16 638.989 2083.16 583.089C2083.16 527.189 2079.06 482.589 2059.06 423.289C2059.06 412.189 2048.96 395.489 2044.56 385.389C2038.66 371.689 2031.96 358.389 2024.56 345.489C2015.36 329.489 2004.26 314.689 1992.66 300.289C1984.86 290.689 1978.36 276.489 1967.76 269.489C1965.66 268.089 1963.56 267.289 1961.56 266.889C1961.26 266.789 1960.96 266.789 1960.56 266.689" fill="#FCAB40"/>
<path d="M1517.26 706.289C1512.96 717.789 1508.66 729.389 1503.86 740.789C1491.46 770.389 1477.46 799.189 1463.16 827.889C1435.16 883.889 1416.56 974.189 1472.26 1002.69C1557.16 1046.19 1712.36 1018.79 1803.26 974.889C1834.06 959.989 1863.96 942.889 1891.46 922.589C1900.66 915.789 1909.56 908.789 1918.26 901.289C1948.96 874.789 1975.66 843.889 1997.36 809.789C1997.96 808.789 1998.56 807.889 1999.16 806.989C2048.06 728.789 2083.16 638.989 2083.16 583.089C2083.16 527.189 2079.06 482.589 2059.06 423.289C2059.06 412.189 2048.96 395.489 2044.56 385.389C2038.66 371.689 2031.96 358.389 2024.56 345.489C2015.36 329.489 2004.26 314.689 1992.66 300.289C1984.86 290.689 1978.36 276.489 1967.76 269.489C1965.66 268.089 1963.56 267.289 1961.56 266.889C1961.26 266.789 1960.96 266.789 1960.56 266.689" stroke="black" stroke-width="27.99" stroke-miterlimit="10"/>
<path d="M2065.33 667.84C2048.5 728.79 1998.29 811.49 1969.85 845.16C1941.7 878.53 1883.95 931.35 1787.6 974.01C1718.53 1004.48 1605.35 1012.61 1544.69 1009.41C1483.75 1006.22 1453.27 976.04 1454.44 959.2C1455.6 942.37 1492.75 927.86 1518 924.66C1522.35 924.08 1526.42 923.5 1530.48 923.21C1531.06 923.21 1531.93 922.92 1532.8 922.92C1567.04 917.7 1623.93 911.6 1662.81 905.8C1721.14 897.09 1803.27 870.1 1846.22 849.21C1888.59 828.61 1946.63 787.98 1973.91 765.34C2009.61 735.16 2052.85 683.21 2063 670.73C2063.58 669.86 2064.16 669.28 2064.45 668.99C2064.74 668.7 2065.03 668.41 2065.03 668.12C2065.32 668.12 2065.32 667.83 2065.32 667.83L2065.33 667.84Z" fill="#BF6B04"/>
<path d="M1821.96 965.689C1821.66 965.689 1821.36 965.989 1821.16 965.989C1753.66 991.189 1677.86 1003.49 1608.46 1010.99C1574.26 1014.89 1539.36 1015.99 1505.96 1007.59C1490.26 1003.99 1474.56 997.489 1463.96 985.189C1453.36 972.889 1449.36 953.789 1458.36 940.389C1462.26 934.489 1467.86 930.289 1474.06 926.989C1508.76 907.389 1552.96 908.189 1591.66 903.489C1632.56 898.489 1673.36 893.689 1713.66 884.689C1770.76 871.789 1826.16 850.789 1877.66 822.789C1915.46 802.689 1950.96 778.589 1983.76 751.089C2011.46 728.089 2043.96 698.489 2066.06 667.989C2066.06 667.689 2066.36 667.689 2066.36 667.689" stroke="black" stroke-width="27.99" stroke-miterlimit="10" stroke-linecap="round"/>
<path d="M1972.36 291.99C1972.36 294.49 1972.16 296.99 1971.96 299.49C1966.96 350.29 1917.06 390.29 1882.36 422.29C1863.46 439.79 1843.66 456.09 1823.66 472.29C1801.76 490.09 1779.56 507.59 1758.26 525.99C1712.26 565.69 1666.16 605.49 1620.76 646.09C1594.76 669.39 1569.06 692.89 1543.86 716.89C1538.46 721.99 1519.66 737.19 1515.26 723.39C1514.26 720.39 1514.76 717.09 1515.36 713.99C1519.06 694.49 1527.06 676.99 1535.66 659.39C1546.56 637.19 1560.46 617.39 1576.16 598.99C1591.86 580.59 1609.26 563.59 1626.96 546.69C1665.46 510.19 1706.76 476.69 1746.96 442.09C1757.56 433.09 1769.86 422.79 1782.96 411.99C1787.26 408.49 1791.56 404.89 1795.96 401.19C1843.56 361.89 1897.76 317.49 1920.86 294.09C1936.26 278.59 1972.76 248.19 1972.36 291.99Z" fill="#BF6B04" stroke="#000002" stroke-width="32.1767" stroke-miterlimit="10" stroke-linecap="round" stroke-linejoin="round"/>
<path d="M1823.66 472.289C1801.76 490.089 1779.56 507.589 1758.26 525.989C1712.26 565.689 1666.16 605.489 1620.76 646.089C1620.26 645.589 1619.86 645.089 1619.46 644.489C1610.66 631.789 1594.66 615.689 1576.26 598.989C1563.96 587.889 1550.46 576.489 1537.36 565.889C1521.36 552.889 1506.26 541.289 1495.26 532.889C1489.76 528.689 1485.26 525.389 1482.06 523.089C1480.46 521.889 1479.26 521.089 1478.46 520.489C1478.06 520.189 1477.76 519.989 1477.56 519.789L1477.36 519.589H1477.26C1473.86 517.089 1471.76 513.289 1471.46 509.089C1471.26 504.889 1472.86 500.789 1475.96 497.989L1661.86 327.089C1665.76 323.489 1671.36 322.389 1676.36 324.289C1718.46 340.489 1754.56 375.589 1782.96 412.089C1792.36 424.189 1800.96 436.389 1808.66 448.189C1814.06 456.389 1819.06 464.589 1823.66 472.289Z" fill="#FAFAFA" stroke="black" stroke-width="28" stroke-linecap="round" stroke-linejoin="round"/>
<path d="M1718.26 541.789C1722.56 538.389 1727.16 534.989 1731.96 531.389C1735.56 528.689 1739.26 526.089 1742.96 523.389C1746.66 520.789 1750.36 518.089 1754.16 515.489C1758.46 512.489 1762.86 509.489 1767.36 506.489L1771.66 503.589C1787.86 492.889 1804.66 482.389 1821.56 472.489L1821.46 472.389C1821.46 472.389 1813.46 462.789 1799.76 448.189C1778.36 461.589 1757.86 475.389 1738.76 490.089C1680.56 534.889 1625.06 584.789 1594.46 626.989C1603.56 632.289 1611.56 637.589 1617.86 642.689V642.589C1623.46 635.789 1629.46 628.989 1635.46 622.089L1639.66 617.389C1644.46 611.989 1649.16 606.789 1654.06 601.489L1659.76 595.389C1664.36 590.589 1668.86 585.989 1673.36 581.389L1679.06 575.689C1685.26 569.589 1691.46 563.789 1697.26 558.689C1701.86 554.689 1707.16 550.289 1712.76 545.889L1718.26 541.789Z" fill="#EEEEEE"/>
<path d="M1824.06 472.19C1802.16 489.99 1779.96 507.49 1758.66 525.89C1712.66 565.59 1666.56 605.39 1621.16 645.99C1620.66 645.49 1620.26 644.99 1619.86 644.39C1611.06 631.69 1595.06 615.59 1576.66 598.89C1564.36 587.79 1550.86 576.39 1537.76 565.79C1521.76 552.79 1506.66 541.19 1495.66 532.79C1490.16 528.59 1485.66 525.29 1482.46 522.99C1480.86 521.79 1479.66 520.99 1478.86 520.39C1478.46 520.09 1478.16 519.89 1477.96 519.69L1477.76 519.49H1477.66C1474.26 516.99 1472.16 513.19 1471.86 508.99C1471.66 504.79 1473.26 500.69 1476.36 497.89L1662.26 326.99C1666.16 323.39 1671.76 322.29 1676.76 324.19C1718.86 340.39 1754.96 375.49 1783.36 411.99C1792.76 424.09 1801.36 436.29 1809.06 448.09C1814.46 456.29 1819.46 464.49 1824.06 472.19Z" stroke="black" stroke-width="28" stroke-linecap="round" stroke-linejoin="round"/>
<path d="M1463.15 827.92C1435.16 883.9 1416.52 974.23 1472.25 1002.72C1557.15 1046.19 1712.36 1018.79 1803.24 974.9C1834.03 960.03 1863.9 942.86 1891.49 922.62C1900.68 915.87 1909.63 908.79 1918.26 901.33C1948.92 874.87 1975.64 843.98 1997.38 809.8C1997.98 808.85 1998.58 807.9 1999.18 806.95C2048.05 728.74 2083.15 639 2083.15 583.02C2083.15 527.04 2079.04 482.5 2059.02 423.19C2044.18 379.24 2020.06 326.26 1976.73 281.08" stroke="black" stroke-width="27.99" stroke-miterlimit="10"/>
<path d="M1941.06 800.39C1936.76 794.09 1928.16 792.49 1921.86 796.69C1893.86 815.19 1861.66 834.49 1835.76 846.29C1806.56 859.69 1758.66 875.49 1712.16 886.79C1708.36 887.69 1705.16 890.09 1703.26 893.49C1701.36 896.89 1700.96 900.79 1702.06 904.49V904.59C1702.16 905.09 1702.36 905.49 1702.56 905.89L1715.46 900.49C1702.56 905.89 1702.56 905.89 1702.56 905.89V905.99C1702.56 906.09 1702.66 906.19 1702.76 906.39C1702.86 906.69 1703.16 907.29 1703.46 907.89C1704.06 909.19 1704.86 911.09 1705.96 913.49C1708.16 918.29 1711.36 925.09 1715.56 933.49C1723.96 950.09 1736.26 972.79 1751.86 996.69C1782.66 1043.89 1828.16 1098.99 1884.16 1120.49C1889.16 1122.39 1894.76 1121.29 1898.66 1117.69L2084.56 946.79C2087.66 943.99 2089.26 939.89 2089.06 935.69C2088.86 931.49 2086.66 927.59 2083.26 925.19H2083.16L2082.96 924.99C2082.76 924.79 2082.46 924.59 2082.06 924.29C2081.26 923.69 2080.06 922.79 2078.46 921.69C2075.36 919.39 2070.86 915.99 2065.26 911.89C2054.16 903.49 2039.16 891.89 2023.16 878.89C1990.56 852.39 1955.76 821.49 1941.06 800.39Z" fill="#FAFAFA"/>
<path d="M1702.56 905.89C1702.36 905.49 1702.16 905.09 1702.06 904.59V904.49C1700.96 900.79 1701.36 896.89 1703.26 893.49C1705.16 890.09 1708.36 887.69 1712.16 886.79C1758.66 875.49 1806.56 859.69 1835.76 846.29C1861.66 834.49 1893.86 815.19 1921.86 796.69C1928.16 792.49 1936.76 794.09 1941.06 800.39C1955.76 821.49 1990.56 852.39 2023.16 878.89C2039.16 891.89 2054.16 903.49 2065.26 911.89C2070.86 915.99 2075.36 919.39 2078.46 921.69C2080.06 922.79 2081.26 923.69 2082.06 924.29C2082.46 924.59 2082.76 924.79 2082.96 924.99L2083.16 925.19H2083.26C2086.66 927.59 2088.86 931.49 2089.06 935.69C2089.26 939.89 2087.66 943.99 2084.56 946.79L1898.66 1117.69C1894.76 1121.29 1889.16 1122.39 1884.16 1120.49C1828.16 1098.99 1782.66 1043.89 1751.86 996.69C1736.26 972.79 1723.96 950.09 1715.56 933.49C1711.36 925.09 1708.16 918.29 1705.96 913.49C1704.86 911.09 1704.06 909.19 1703.46 907.89C1703.16 907.29 1702.86 906.69 1702.76 906.39C1702.66 906.19 1702.56 906.09 1702.56 905.99V905.89ZM1702.56 905.89L1715.46 900.49C1702.56 905.89 1702.56 905.89 1702.56 905.89Z" stroke="black" stroke-width="28" stroke-linecap="round" stroke-linejoin="round"/>
<path d="M1819.86 868.089C1815.36 869.789 1810.66 871.589 1805.76 873.389C1802.06 874.689 1798.26 876.089 1794.46 877.389C1790.76 878.689 1786.96 879.989 1783.06 881.289C1778.66 882.789 1774.26 884.089 1769.66 885.589L1765.26 886.889C1748.96 891.889 1732.16 896.489 1715.46 900.489V900.589C1715.46 900.589 1719.76 910.689 1727.66 926.489C1749.06 920.589 1769.86 914.089 1789.56 906.589C1849.86 883.489 1909.06 855.389 1945.46 827.589C1939.16 820.789 1933.76 814.389 1929.66 808.489L1929.56 808.589C1923.06 812.889 1916.36 817.189 1909.56 821.489L1904.86 824.389C1899.46 827.689 1894.16 830.889 1888.76 834.089L1882.46 837.789C1877.36 840.689 1872.46 843.489 1867.46 846.189L1861.26 849.589C1854.46 853.189 1847.86 856.489 1841.66 859.289C1836.76 861.489 1831.16 863.889 1825.36 866.189L1819.86 868.089Z" fill="#D6D6D6"/>
</g>
<path d="M1196.56 607.37C1196.56 607.37 1196.56 607.371 1196.56 607.372C1196.56 607.372 1196.56 607.373 1196.56 607.374C1196.56 607.374 1196.56 607.375 1196.56 607.376C1196.56 607.376 1196.56 607.376 1196.56 607.376C1196.56 607.377 1196.55 607.377 1196.55 607.377C1196.55 607.377 1196.55 607.377 1196.55 607.377C1196.55 607.376 1196.55 607.376 1196.55 607.376C1196.55 607.375 1196.55 607.375 1196.55 607.374C1196.55 607.374 1196.55 607.373 1196.55 607.372C1196.55 607.372 1196.55 607.371 1196.55 607.37C1196.55 607.37 1196.55 607.369 1196.55 607.368C1196.55 607.368 1196.55 607.368 1196.55 607.368C1196.55 607.367 1196.55 607.367 1196.55 607.367C1196.55 607.367 1196.55 607.367 1196.56 607.367C1196.56 607.368 1196.56 607.368 1196.56 607.368C1196.56 607.369 1196.56 607.369 1196.56 607.37Z" fill="#FED5A0" stroke="#FED5A0" stroke-width="27.99" stroke-miterlimit="10" stroke-linecap="round"/>
</g>
</g>
<defs>
<clipPath id="clip0_12_1265">
<rect width="3227" height="1160" fill="white"/>
</clipPath>
<clipPath id="clip1_12_1265">
<rect width="1072" height="1072" fill="white" transform="translate(-158 221.181) rotate(-15)"/>
</clipPath>
<clipPath id="clip2_12_1265">
<rect width="986" height="1072" fill="white" transform="translate(-116.465 210.052) rotate(-15)"/>
</clipPath>
<clipPath id="clip3_12_1265">
<rect width="1072" height="1072" fill="white" transform="matrix(-0.866025 -0.5 -0.5 0.866025 3454.65 404)"/>
</clipPath>
<clipPath id="clip4_12_1265">
<rect width="986" height="1072" fill="white" transform="matrix(-0.866025 -0.5 -0.5 0.866025 3417.41 382.5)"/>
</clipPath>
<clipPath id="clip5_12_1265">
<rect width="1072" height="1072" fill="white" transform="translate(1074.46 64.1895)"/>
</clipPath>
<clipPath id="clip6_12_1265">
<rect width="986" height="1072" fill="white" transform="translate(1117.46 64.1895)"/>
</clipPath>
<clipPath id="clip7_12_1265">
<rect width="986" height="1072" fill="white" transform="translate(1117.46 64.1895)"/>
</clipPath>
</defs>
</svg>
