<svg width="1072" height="1072" viewBox="0 0 1072 1072" fill="none" xmlns="http://www.w3.org/2000/svg">
<path d="M605.8 44.7998C599.2 47.6998 592.5 50.6998 585.7 53.7998C529.2 79.6998 466.7 111.7 420.8 127C336.8 155 224.9 183 140.9 294.9C56.9 406.8 57 518.8 57 574.8C57 630.8 58.7 711.5 113 742.8C164.9 772.7 234.4 724.8 295.6 694.5C300.1 692.3 304.6 690.1 309 688.1C319.1 683.5 328.8 679.6 338.2 676.9C341.2 676 344.1 675.1 347 674.2" fill="#FCAB40"/>
<path d="M605.8 44.7998C599.2 47.6998 592.5 50.6998 585.7 53.7998C529.2 79.6998 466.7 111.7 420.8 127C336.8 155 224.9 183 140.9 294.9C56.9 406.8 57 518.8 57 574.8C57 630.8 58.7 711.5 113 742.8C164.9 772.7 234.4 724.8 295.6 694.5C300.1 692.3 304.6 690.1 309 688.1C319.1 683.5 328.8 679.6 338.2 676.9C341.2 676 344.1 675.1 347 674.2" stroke="black" stroke-width="27.99" stroke-miterlimit="10" stroke-linecap="round" stroke-linejoin="round"/>
<path d="M178.4 349.4C178.4 349.4 236 225.6 406.2 199" stroke="#FED5A0" stroke-width="27.99" stroke-miterlimit="10" stroke-linecap="round"/>
<path d="M625.9 95.4C625.5 111.7 622.1 127.8 617.7 143.4C607.4 179.5 591.7 213.7 574.4 247.2C566.6 262.3 558.4 277.2 550.3 292.2C540.8 309.5 531.4 326.9 521.9 344.2C501.3 381.9 481.4 419.9 460.9 457.7C454.4 469.7 448.4 483.3 442.5 497.8C412.8 570.9 388.1 665.3 340 673.3L335 673.7C314.2 667.1 341.2 550.1 381 446.7C394.5 411.5 409.6 377.9 424.7 350.8C451.7 302.5 480.7 255.2 508.3 207.2C527.3 174.2 545.6 140.8 562.3 106.5C568.3 94.1 574.1 81.5 581.6 69.9C587.3 61 597.8 40.6 611.1 44.8C619.3 47.4 622.2 59.6 623.8 67C625.8 76.4 626.2 86 625.9 95.4Z" fill="#BF6B04" stroke="#000002" stroke-width="33.05" stroke-miterlimit="10" stroke-linecap="round"/>
<path d="M156.005 393C156.005 393.001 156.005 393.001 156.005 393.002C156.005 393.003 156.004 393.003 156.004 393.004C156.003 393.004 156.003 393.005 156.002 393.005C156.001 393.005 156.001 393.005 156 393.005C155.999 393.005 155.999 393.005 155.998 393.005C155.997 393.005 155.997 393.004 155.996 393.004C155.996 393.003 155.995 393.003 155.995 393.002C155.995 393.001 155.995 393.001 155.995 393C155.995 392.999 155.995 392.999 155.995 392.998C155.995 392.997 155.996 392.997 155.996 392.996C155.997 392.996 155.997 392.995 155.998 392.995C155.999 392.995 155.999 392.995 156 392.995C156.001 392.995 156.001 392.995 156.002 392.995C156.003 392.995 156.003 392.996 156.004 392.996C156.004 392.997 156.005 392.997 156.005 392.998C156.005 392.999 156.005 392.999 156.005 393Z" fill="#FED5A0" stroke="#FED5A0" stroke-width="27.99" stroke-miterlimit="10" stroke-linecap="round"/>
</svg>
