<?xml version="1.0" encoding="utf-8"?>
<!-- Generator: Adobe Illustrator 27.3.1, SVG Export Plug-In . SVG Version: 6.00 Build 0)  -->
<svg version="1.1" id="Layer_1" xmlns="http://www.w3.org/2000/svg" xmlns:xlink="http://www.w3.org/1999/xlink" x="0px" y="0px"
	 viewBox="0 0 1000 1000" style="enable-background:new 0 0 1000 1000;" xml:space="preserve">
<style type="text/css">
	.st0{fill:#FFBC64;}
</style>
<g>
	<path class="st0" d="M212.4,511.3c-2.7,0-5.5-1.2-8.5-3.6c-1.8-1.5-2.6-3-2.6-4.6c0-2.4,1.9-5.2,5.3-8c4.4-3.6,6.4-4.7,8.6-4.7
		c1.7,0,3.8,0.6,7.5,2.3c2.5,1.1,3.8,2.8,4.1,4.9c0.4,3-1.4,6.6-4.4,9.1C218.6,509.9,215.4,511.3,212.4,511.3z"/>
	<path d="M215.1,492.4L215.1,492.4c1.4,0,3.3,0.6,6.7,2.1c1.8,0.8,2.8,1.9,3,3.4c0.3,2.3-1.2,5.3-3.7,7.3c-3.4,2.7-6.2,4.1-8.8,4.1
		c-2.2,0-4.6-1-7.2-3.2c-1.9-1.6-1.9-2.7-1.9-3c0-1.7,1.7-4.1,4.6-6.5C211.8,493.4,213.5,492.4,215.1,492.4 M215.1,488.4
		c-3.1,0-5.6,1.6-9.9,5.1c-6,4.9-8.7,10.8-2.7,15.7c3.4,2.8,6.6,4.1,9.8,4.1c3.7,0,7.3-1.8,11.3-5c6-4.9,7.9-13.8-0.2-17.4
		C219.8,489.3,217.4,488.4,215.1,488.4L215.1,488.4z"/>
</g>
<g>
	<path class="st0" d="M191.5,522.8c-0.4,0-0.9-0.5-1.7-1.3c-0.4-0.4-0.8-0.8-1.2-1.2c-1.2-1.1-1.8-2-1.8-2.6c0-0.6,0.6-1.4,1.7-2.4
		c1.8-1.6,2.7-1.9,3.5-1.9c0.9,0,2.1,0.4,3.8,1.2c0.4,0.2,1.6,0.7,1.3,2.9c-0.1,1-1.2,2-2.2,3l-0.5,0.4
		C193.1,522,192.2,522.8,191.5,522.8L191.5,522.8z"/>
	<path d="M191.9,514.9c0.7,0,1.9,0.5,3.2,1.1c0.2,0.1,0.6,0.3,0.4,1.3c0,0.3-0.4,0.8-1.8,2.1l-0.5,0.4c-0.5,0.5-1.2,1.1-1.6,1.3
		c-0.2-0.2-0.5-0.5-0.8-0.8c-0.4-0.4-0.8-0.8-1.3-1.2c-0.9-0.8-1.2-1.3-1.3-1.4c0.1-0.2,0.4-0.6,1.2-1.3
		C191.1,514.9,191.6,514.9,191.9,514.9 M191.9,511.9c-1.4,0-2.7,0.7-4.5,2.3c-3,2.7-2.9,4.5,0.1,7.2c1.7,1.5,2.5,2.9,4,2.9
		c0,0,0,0,0,0c1.4,0,2.5-1.2,4.2-2.7c1.4-1.3,2.5-2.5,2.7-3.9c0.2-1.5-0.1-3.5-2.2-4.4C194.4,512.4,193.1,511.9,191.9,511.9
		L191.9,511.9z"/>
</g>
<g>
	<path class="st0" d="M209.4,538.5c-2.5,0-4.5-1.1-5.9-6.3c-1.3-5-0.1-5.8,4.8-9.1l1.1-0.8c1.3-0.9,2.4-1.3,3.4-1.3
		c3.4,0,5.1,5.4,5.5,7.1c1.5,5.8,0.1,8.4-5.5,9.9C211.5,538.3,210.3,538.5,209.4,538.5z"/>
	<path d="M212.8,523c1.2,0,2.7,2.3,3.6,5.6c1.3,4.7,0.4,6.2-4.1,7.4c-1.1,0.3-2.1,0.5-2.9,0.5c-1.2,0-2.7,0-4-4.9
		c-0.7-2.7-0.3-3.4-0.2-3.6c0.5-0.9,2.1-2,4.2-3.3c0.4-0.2,0.7-0.5,1.1-0.8C211.7,523.1,212.4,523,212.8,523 M212.8,519
		c-1.4,0-2.9,0.5-4.5,1.7c-5.8,4-8.5,5.3-6.7,12c1.4,5.3,3.7,7.8,7.8,7.8c1.2,0,2.5-0.2,3.9-0.6c6.8-1.8,8.7-5.5,6.9-12.3
		C218.9,522.7,216.4,519,212.8,519L212.8,519z"/>
</g>
<g>
	<path class="st0" d="M257,461.9c-1.1,0-2.3-1.1-4-2.6l-0.1-0.1c-1.9-1.7-2.3-2.6-2.3-3.5c0-1.7,0.6-3.1,1.8-4.1
		c1.5-1.4,2.7-1.6,3.5-1.6c0.3,0,0.5,0,0.9,0.1c1.1,0.1,2.9,0.5,5.3,1.6c1.5,0.7,2.1,1.7,1.8,3.5c-0.2,1.4-1,2.7-2.6,4.1
		C259.5,461,258.2,461.9,257,461.9L257,461.9z"/>
	<path d="M255.8,451.5L255.8,451.5c0.2,0,0.4,0,0.7,0.1c1,0.1,2.6,0.4,4.9,1.5c0.8,0.4,1.1,0.7,1,2c-0.1,1-0.8,2.1-2.1,3.2
		c-1.2,1.1-2.6,2.2-3.3,2.2c-0.5,0-1.9-1.2-3-2.3l-0.1-0.1c-1.8-1.6-1.8-2.1-1.8-2.3c0-1.3,0.4-2.3,1.3-3.1
		C254.5,451.6,255.2,451.5,255.8,451.5 M255.8,448.5c-1.4,0-2.8,0.4-4.5,2c-1.8,1.7-2.3,3.6-2.3,5.2c0,1.7,0.9,2.9,2.7,4.6
		c2,1.8,3.4,3.1,5.2,3.1c0,0,0,0,0,0c1.7,0,3.3-1.2,5.3-3c1.8-1.6,2.8-3.3,3-5c0.2-1.9-0.2-3.9-2.7-5.1c-2.4-1.1-4.2-1.5-5.7-1.7
		C256.5,448.5,256.2,448.5,255.8,448.5L255.8,448.5z"/>
</g>
<g>
	<path class="st0" d="M240.1,597.5c-1.6,0-3.3-0.9-5.6-2.9c-1.2-1.1-2.7-2.8-2.7-4.7c0-1.2,0.6-2.4,1.9-3.5c1.3-1.2,2.1-1.3,2.5-1.3
		c1,0,2.1,0.7,3.6,1.5c1,0.6,2.1,1.2,3.3,1.8c1.2,0.5,2.7,1.5,2.9,3.1c0.2,1.3-0.5,2.8-2.1,4.2C242.7,596.9,241.4,597.5,240.1,597.5
		z"/>
	<path d="M236.3,586.5c0.6,0,1.7,0.6,2.8,1.3c1,0.6,2.1,1.2,3.5,1.8c1.2,0.5,2,1.2,2.1,1.9c0.1,0.8-0.5,1.9-1.6,2.9
		c-1.7,1.5-2.7,1.5-3,1.5c-1.2,0-2.7-0.8-4.6-2.6c-1.4-1.3-2.2-2.5-2.2-3.6c0-0.8,0.5-1.6,1.4-2.4
		C235.2,587.1,235.9,586.5,236.3,586.5 M236.3,583.5c-1.1,0-2.2,0.5-3.6,1.7c-3.7,3.3-2.9,7.1,0.8,10.4c2.3,2.1,4.4,3.3,6.6,3.3
		c1.6,0,3.3-0.7,5-2.3c3.7-3.3,3.6-7.5-1.3-9.7C240.5,585.4,238.5,583.5,236.3,583.5L236.3,583.5z"/>
</g>
<g>
	<path class="st0" d="M220,587.5c-0.8,0-1.8-0.5-3-1.6c-0.9-0.8-1.4-1.6-1.4-2.2c0-0.7,0.7-1.7,2.2-3.1c1.5-1.4,2.1-1.6,2.5-1.6
		c0.6,0,1.5,0.4,2.7,1c0.4,0.2,0.8,0.4,1.2,0.6c0.6,0.3,1.6,0.8,1.7,1.5c0.1,0.7-0.7,2-2.2,3.3C222,586.9,220.9,587.5,220,587.5z"/>
	<path d="M220.3,580.6c0.3,0,1.3,0.5,2,0.8c0.4,0.2,0.8,0.4,1.2,0.6c0.4,0.2,0.6,0.3,0.7,0.4c-0.1,0.3-0.6,0.9-1.6,1.9
		c-1.7,1.5-2.4,1.7-2.7,1.7c-0.2,0-0.8-0.1-2-1.2c-0.7-0.6-0.9-1-0.9-1.1c0.1-0.2,0.3-0.7,1.7-2
		C219.8,580.8,220.2,580.6,220.3,580.6 M220.3,577.6c-1,0-2,0.6-3.5,2c-3,2.7-3.8,4.7-0.8,7.5c1.5,1.4,2.8,2,4,2
		c1.5,0,2.9-0.9,4.7-2.5c3-2.7,4.1-5.5,0.1-7.3C222.7,578.3,221.5,577.6,220.3,577.6L220.3,577.6z"/>
</g>
</svg>
