<svg width="18" height="16" viewBox="0 0 18 16" fill="none" xmlns="http://www.w3.org/2000/svg">
<path d="M9.71973 13.95C8.13973 13.95 6.37973 13.01 4.15973 11.01C2.92973 9.9 1.46973 8.19 1.46973 6.34C1.46973 5.13 2.10973 3.95 3.36973 2.8C4.64973 1.64 5.43973 1.5 5.90973 1.5C6.88973 1.5 8.03973 2.17 9.48973 3.01C10.4497 3.57 11.5397 4.2 12.8297 4.78C14.0297 5.32 15.5197 6.3 15.7597 7.83C15.9597 9.13 15.2097 10.67 13.6897 12.04C12.2797 13.32 10.9797 13.94 9.69973 13.94L9.71973 13.95Z" fill="#FFBC64"/>
<path d="M5.91914 3C6.49914 3 7.58914 3.63 8.74914 4.3C9.73914 4.88 10.8691 5.53 12.2291 6.14C13.4391 6.69 14.1891 7.39 14.2991 8.06C14.4191 8.83 13.8091 9.93 12.7091 10.93C11.0391 12.44 10.0591 12.44 9.72914 12.44C8.55914 12.44 7.06914 11.6 5.17914 9.88C3.75914 8.6 2.98914 7.34 2.98914 6.33C2.98914 5.57 3.45914 4.75 4.39914 3.91C4.76914 3.57 5.46914 3 5.93914 3M5.93914 0C4.85914 0 3.72914 0.47 2.38914 1.69C-1.28086 5.02 -0.490857 8.79 3.17914 12.11C5.48914 14.2 7.59914 15.44 9.74914 15.44C11.3691 15.44 12.9991 14.73 14.7391 13.15C18.4091 9.82 18.3591 5.61 13.4891 3.41C10.1591 1.9 8.12914 0 5.94914 0H5.93914Z" fill="black"/>
</svg>
