<svg width="30" height="25" viewBox="0 0 30 25" fill="none" xmlns="http://www.w3.org/2000/svg">
<g clip-path="url(#clip0_23_2667)">
<path d="M13.14 22.88C10.41 22.88 7.64 21.69 4.65 19.25C2.87 17.79 2 16.3 2 14.68C2 12.33 3.89 9.49 7.33 6.68C11.77 3.05 13.7 2 15.93 2C17.63 2 19.74 2.64 23.46 4.29C25.91 5.38 27.31 7.04 27.6 9.23C28 12.2 26.22 15.86 23.18 18.34C19.39 21.43 16.2 22.88 13.14 22.88Z" fill="#FFBC64"/>
<path d="M15.9298 4C17.3098 4 19.2598 4.62 22.6498 6.12C24.4498 6.92 25.4198 8.03 25.6198 9.49C25.9198 11.76 24.3998 14.76 21.9198 16.79C18.5598 19.54 15.6898 20.87 13.1498 20.87C10.8998 20.87 8.53977 19.83 5.91977 17.69C3.99977 16.13 3.99977 15.03 3.99977 14.67C3.99977 12.98 5.71977 10.57 8.59977 8.22C12.5598 4.98 14.2798 3.99 15.9298 3.99M15.9298 0C12.8598 0 10.3398 1.64 6.05977 5.13C0.0497718 10.04 -2.63023 15.89 3.37977 20.8C6.77977 23.58 9.96977 24.88 13.1398 24.88C16.8198 24.88 20.4898 23.12 24.4398 19.89C30.4498 14.98 32.3298 6.05 24.2698 2.47C20.6298 0.85 18.1398 0 15.9298 0Z" fill="black"/>
</g>
<defs>
<clipPath id="clip0_23_2667">
<rect width="29.65" height="24.88" fill="white"/>
</clipPath>
</defs>
</svg>
