<svg width="14" height="12" viewBox="0 0 14 12" fill="none" xmlns="http://www.w3.org/2000/svg">
<g clip-path="url(#clip0_23_2673)">
<path d="M5.91 9.93C5.08 9.93 4.12 9.41 2.9 8.3C1.97 7.46 1.5 6.73 1.5 6.14C1.5 5.4 2.21 4.39 3.68 3.07C5.21 1.69 5.8 1.5 6.22 1.5C6.8 1.5 7.67 1.91 8.89 2.48C9.26 2.65 9.66 2.84 10.1 3.04C10.68 3.3 11.67 3.84 11.77 4.5C11.89 5.24 11.07 6.49 9.58 7.83C7.95 9.31 6.85 9.94 5.92 9.94L5.91 9.93Z" fill="#FFBC64"/>
<path d="M6.25023 3C6.58023 3.05 7.50023 3.48 8.25023 3.83C8.62023 4 9.03023 4.19 9.47023 4.39C9.83023 4.55 10.0602 4.69 10.1902 4.79C10.0402 5.1 9.64023 5.73 8.56023 6.7C6.91023 8.2 6.19023 8.42 5.90023 8.42C5.71023 8.42 5.13023 8.3 3.89023 7.18C3.22023 6.58 3.04023 6.23 3.00023 6.12C3.05023 5.97 3.32023 5.4 4.68023 4.17C5.70023 3.24 6.12023 3.03 6.24023 2.99M6.22023 0C5.20023 0 4.23023 0.55 2.67023 1.96C-0.31977 4.67 -1.09977 6.71 1.89023 9.42C3.41023 10.79 4.67023 11.43 5.91023 11.43C7.37023 11.43 8.80023 10.55 10.5802 8.93C13.5702 6.22 14.6702 3.45 10.7102 1.66C8.56023 0.7 7.36023 0 6.22023 0Z" fill="black"/>
</g>
<defs>
<clipPath id="clip0_23_2673">
<rect width="14" height="12" fill="white"/>
</clipPath>
</defs>
</svg>
