<svg width="601" height="405" viewBox="0 0 601 405" fill="none" xmlns="http://www.w3.org/2000/svg"
    preserveAspectRatio="none">
    <g clip-path="url(#clip0_26_2712)">
        <path
            d="M14.5299 397.72C11.4599 397.72 9.26994 397.22 8.34994 396.3C6.43994 394.38 6.46994 387.99 6.50994 381.22C6.50994 380.19 6.51994 379.13 6.51994 378.05C6.51994 292.41 8.40994 248.88 10.2399 206.78C12.0699 164.54 13.9699 120.86 13.9699 34.95C13.9699 29.62 13.0999 24.95 12.4099 21.2C12.0799 19.4 11.6499 17.08 11.5899 15.73C12.1499 15.62 13.0799 15.52 14.5299 15.52C82.6299 15.52 117.26 13.23 150.74 11.01C184.01 8.80002 218.41 6.52002 286.09 6.52002C353.77 6.52002 388.27 8.05002 421.58 9.52002C455.03 11 489.61 12.54 557.64 12.54C559.05 12.54 561.55 12.69 562.54 13.71C564.39 15.61 564.21 22.38 564.05 28.35C563.99 30.47 563.94 32.66 563.94 34.95C563.94 121.29 571.57 165.17 578.95 207.62C586.23 249.52 593.77 292.84 593.77 378.06C593.77 387.85 572.03 394.34 557.65 394.34C490.12 394.34 455.78 390.59 422.58 386.95C389.03 383.28 354.34 379.49 286.1 379.49C217.86 379.49 183.05 384.16 149.46 388.67C116.29 393.13 81.9999 397.74 14.5499 397.74L14.5299 397.72Z"
            fill="#FEEED9" />
        <path
            d="M286.08 13C353.68 13 388.05 14.52 421.28 16C454.78 17.49 489.41 19.02 557.5 19.02C557.72 21.44 557.62 25.34 557.54 28.15C557.48 30.31 557.42 32.55 557.42 34.92C557.42 121.82 565.1 165.99 572.52 208.7C580.09 252.24 587.24 293.37 587.24 378.03C587.24 378.49 585.43 380.9 579.69 383.37C572.05 386.65 563.02 387.81 557.62 387.81C490.44 387.81 456.29 384.08 423.26 380.46C389.54 376.77 354.67 372.96 286.07 372.96C217.47 372.96 182.36 377.66 148.56 382.2C114.09 386.83 81.5301 391.21 14.5101 391.21C14.0201 391.21 13.6101 391.19 13.2701 391.17C12.9501 388.77 12.9701 384.52 12.9901 381.24C12.9901 380.2 13.0001 379.13 13.0001 378.03C13.0001 292.54 14.8901 249.07 16.7101 207.04C18.5501 164.73 20.4501 120.98 20.4501 34.92C20.4501 29.94 19.8001 25.62 19.1501 21.99C84.4201 21.89 118.33 19.64 151.14 17.47C184.3 15.27 218.6 13 286.06 13M286.06 0C150.3 0 150.3 9 14.5301 9C-1.17993 9 7.48007 19.22 7.48007 34.93C7.47007 206.48 0.02007 206.48 0.02007 378.04C0.02007 393.75 -1.18993 404.22 14.5301 404.22C150.31 404.22 150.31 385.97 286.08 385.97C421.85 385.97 421.86 400.82 557.63 400.82C573.34 400.82 600.25 393.75 600.25 378.04C600.25 206.49 570.43 206.49 570.43 34.93C570.43 19.22 573.34 6.02 557.63 6.02C421.86 6.02 421.86 0 286.08 0L286.06 0Z"
            fill="black" />
    </g>
    <defs>
        <clipPath id="clip0_26_2712">
            <rect width="600.26" height="404.22" fill="white" />
        </clipPath>
    </defs>
</svg>