<?xml version="1.0" encoding="UTF-8"?><svg id="Layer_1" xmlns="http://www.w3.org/2000/svg" viewBox="0 0 1933.14 1551.37"><defs><style>.cls-1{fill:#fff;}.cls-2{stroke:#ffbc64;}.cls-2,.cls-3,.cls-4{fill:none;}.cls-2,.cls-4{stroke-linecap:round;stroke-linejoin:round;stroke-width:2px;}.cls-5{fill:#ffbc64;}.cls-3{stroke-miterlimit:10;stroke-width:5px;}.cls-3,.cls-4{stroke:#000;}.cls-6{font-family:MyriadPro-Regular, 'Myriad Pro';font-size:71.19px;}.cls-7{letter-spacing:0em;}.cls-8{letter-spacing:.01em;}.cls-9{letter-spacing:-.01em;}.cls-10{fill:#feeed9;}</style></defs><path class="cls-5" d="m441.16,457.03c-2.73,0-5.5-1.19-8.49-3.63-1.78-1.46-2.65-2.95-2.65-4.57,0-2.35,1.89-5.19,5.33-8,4.44-3.63,6.37-4.68,8.6-4.68,1.7,0,3.81.64,7.53,2.29,2.45,1.09,3.85,2.75,4.14,4.94.4,2.97-1.38,6.63-4.42,9.11-3.79,3.09-6.98,4.54-10.04,4.54Z"/><path d="m443.94,438.16h0c1.38,0,3.33.62,6.72,2.12,1.8.8,2.77,1.91,2.97,3.37.3,2.27-1.22,5.27-3.7,7.3-3.36,2.75-6.23,4.08-8.77,4.08-2.25,0-4.61-1.04-7.23-3.18-1.92-1.56-1.92-2.66-1.92-3.02,0-1.69,1.72-4.1,4.6-6.45,3.96-3.24,5.68-4.23,7.33-4.23m0-4c-3.07,0-5.59,1.64-9.87,5.13-6.01,4.91-8.69,10.76-2.68,15.67,3.4,2.78,6.59,4.08,9.76,4.08,3.68,0,7.35-1.76,11.3-4.99,6.01-4.91,7.89-13.84-.17-17.42-3.64-1.62-6.13-2.47-8.34-2.47h0Z"/><path class="cls-5" d="m420.31,468.5c-.4,0-.92-.51-1.73-1.33-.37-.37-.77-.78-1.22-1.19-1.23-1.12-1.83-1.95-1.83-2.56s.57-1.39,1.69-2.4c1.76-1.59,2.65-1.92,3.45-1.92.92,0,2.08.44,3.78,1.21.39.18,1.59.72,1.31,2.88-.12.98-1.15,2.03-2.24,3.02l-.48.44c-1.17,1.07-2.02,1.85-2.72,1.85h0Z"/><path d="m420.67,460.6c.68,0,1.92.52,3.16,1.08.23.1.58.26.44,1.32-.03.26-.37.83-1.76,2.1l-.48.44c-.51.47-1.18,1.08-1.59,1.35-.23-.21-.55-.52-.79-.78-.37-.37-.79-.8-1.28-1.25-.88-.8-1.19-1.25-1.3-1.44.1-.18.38-.59,1.16-1.29,1.69-1.53,2.22-1.53,2.44-1.53m0-3c-1.42,0-2.67.69-4.46,2.31-3,2.72-2.86,4.46.14,7.18,1.65,1.5,2.54,2.91,3.96,2.91,0,0,0,0,.01,0,1.42,0,2.55-1.18,4.2-2.68,1.44-1.31,2.54-2.51,2.72-3.94.2-1.54-.11-3.5-2.18-4.44-1.87-.85-3.19-1.34-4.4-1.34h0Z"/><path class="cls-5" d="m438.16,484.24c-2.54,0-4.51-1.08-5.9-6.34-1.31-4.98-.14-5.78,4.79-9.14l1.1-.75c1.26-.86,2.4-1.3,3.4-1.3,3.4,0,5.1,5.45,5.54,7.11,1.52,5.77.08,8.36-5.53,9.89-1.3.35-2.44.53-3.41.53Z"/><path d="m441.56,468.71c1.25,0,2.73,2.31,3.6,5.62,1.25,4.74.44,6.2-4.12,7.45-1.12.31-2.1.46-2.89.46-1.2,0-2.69,0-3.97-4.85-.72-2.73-.32-3.39-.17-3.64.53-.87,2.13-1.96,4.15-3.33.36-.24.73-.49,1.11-.76,1.2-.83,1.94-.95,2.27-.95m0-4c-1.36,0-2.87.51-4.54,1.65-5.79,3.98-8.49,5.26-6.7,12.05,1.39,5.26,3.69,7.83,7.83,7.83,1.16,0,2.47-.2,3.94-.6,6.77-1.84,8.72-5.54,6.93-12.32-1.29-4.91-3.81-8.6-7.47-8.6h0Z"/><path class="cls-5" d="m485.76,407.64c-1.12,0-2.34-1.11-4.04-2.64l-.13-.12c-1.91-1.73-2.28-2.58-2.26-3.47.04-1.75.61-3.06,1.8-4.14,1.53-1.38,2.66-1.56,3.48-1.56.27,0,.55.02.87.06,1.1.15,2.85.48,5.32,1.59,1.52.69,2.07,1.74,1.84,3.51-.17,1.35-1.03,2.74-2.55,4.12-1.84,1.66-3.13,2.63-4.33,2.64h-.01Z"/><path d="m484.62,397.22h0c.2,0,.41.02.66.05,1.01.14,2.61.44,4.91,1.48.8.36,1.13.73.97,1.96-.12.98-.84,2.08-2.07,3.2-1.22,1.11-2.58,2.24-3.33,2.25-.54,0-1.86-1.2-3.03-2.25l-.13-.12c-1.78-1.61-1.77-2.09-1.76-2.32.03-1.34.42-2.26,1.31-3.06,1.14-1.03,1.89-1.17,2.48-1.17m0-3c-1.37,0-2.81.43-4.49,1.95-1.83,1.66-2.25,3.58-2.29,5.22-.04,1.65.9,2.94,2.75,4.61,2.02,1.83,3.44,3.15,5.17,3.15,0,0,.01,0,.02,0,1.74-.01,3.3-1.19,5.32-3.02,1.76-1.6,2.81-3.3,3.03-5.04.24-1.89-.18-3.93-2.71-5.07-2.38-1.07-4.2-1.51-5.74-1.71-.35-.05-.71-.08-1.07-.08h0Z"/><path class="cls-5" d="m468.92,543.2c-1.58,0-3.34-.94-5.56-2.94-1.23-1.11-2.69-2.82-2.69-4.67,0-1.21.64-2.39,1.9-3.54,1.28-1.16,2.07-1.3,2.54-1.3.98,0,2.13.67,3.58,1.51.96.56,2.05,1.19,3.34,1.77,1.2.54,2.69,1.52,2.93,3.05.2,1.3-.55,2.84-2.07,4.21-1.41,1.28-2.71,1.9-3.99,1.9Z"/><path d="m465.12,532.26c.58,0,1.67.63,2.83,1.3.99.58,2.12,1.23,3.48,1.84,1.21.55,1.96,1.25,2.07,1.92.12.77-.49,1.87-1.59,2.87-1.67,1.51-2.65,1.51-2.98,1.51-1.17,0-2.66-.84-4.55-2.56-1.42-1.28-2.19-2.54-2.19-3.55,0-.76.47-1.58,1.41-2.42.37-.34,1.07-.91,1.54-.91m0-3c-1.08,0-2.21.47-3.55,1.69-3.67,3.33-2.88,7.1.79,10.42,2.31,2.09,4.42,3.33,6.57,3.33,1.62,0,3.25-.71,4.99-2.29,3.67-3.33,3.62-7.54-1.25-9.74-3.33-1.51-5.36-3.41-7.54-3.41h0Z"/><path class="cls-5" d="m448.8,533.23c-.83,0-1.79-.52-3.01-1.63-.93-.84-1.4-1.57-1.4-2.16,0-.74.71-1.75,2.18-3.07,1.53-1.38,2.12-1.57,2.54-1.57.58,0,1.45.41,2.67.98.37.17.77.36,1.21.56.58.26,1.57.8,1.67,1.46.12.74-.7,1.99-2.19,3.33-1.63,1.48-2.73,2.11-3.66,2.11Z"/><path d="m449.14,526.3c.33.05,1.25.48,2,.83.37.17.78.36,1.22.56.36.16.59.3.72.4-.15.31-.55.94-1.63,1.91-1.65,1.5-2.37,1.72-2.66,1.72-.19,0-.77-.12-2.01-1.24-.67-.6-.85-.95-.89-1.06.05-.15.32-.72,1.68-1.95,1.02-.93,1.44-1.14,1.56-1.18m-.03-3c-1.02,0-1.99.55-3.55,1.96-2.99,2.71-3.77,4.75-.78,7.46,1.52,1.37,2.78,2.01,4.02,2.01,1.46,0,2.89-.88,4.67-2.5,2.99-2.71,4.09-5.48.13-7.27-2.14-.97-3.35-1.67-4.49-1.67h0Z"/><polyline class="cls-2" points="591.22 506.78 591.39 506.84 589.95 514.83 592.82 515.87 588.61 522.86 594.36 524.95 587.17 530.85 596.04 534.08 585.61 538.79 597.95 543.28 583.87 546.67 600.2 552.61 581.9 554.47 602.97 562.13 579.62 562.15 606.62 571.98 576.93 569.68 611.94 582.43 573.66 577.01 621.57 594.45 569.63 584.05 674.49 622.22 564.58 590.73 661.17 625.89 558.24 596.94 648.97 629.96 550.33 602.57 638.26 634.58 540.7 607.58 629.25 639.81 529.42 611.99 621.93 645.66 516.78 615.9 616.08 652.04 503.16 619.45 611.43 658.86 565.34 650.6 607.7 666.02 572.84 661.84 604.65 673.42 577.42 672.02 602.12 681.01 580.69 681.73 599.96 688.74 583.25 691.17 598.08 696.57 585.36 700.45 596.42 704.48 587.18 709.63 594.9 712.44 588.81 718.74 593.5 720.45 590.3 727.79 592.19 728.48"/><polyline class="cls-4" points="591.47 525.28 597.84 527.6 593.16 534.41 599.6 536.75 595.07 543.62 601.62 546 597.31 552.94 604.04 555.39 600.05 562.46 607.1 565.02 603.61 572.27 611.3 575.07 608.69 582.63 618 586.01 617.28 594.27 691.27 621.2 667.5 621.06 677.22 624.6 654.65 624.9 663.77 628.21 643.07 629.19 651.41 632.23 633.04 634.06 640.54 636.79 624.67 639.52 631.4 641.97 617.87 645.56 624.01 647.8 612.4 652.09 618.18 654.19 608.01 659 613.61 661.04 604.45 666.22 609.97 668.23 601.51 673.66 607.01 675.66 599.04 681.28 604.55 683.28 596.92 689.02 602.45 691.03 595.06 696.86 600.61 698.88 593.41 704.77 598.98 706.8 591.9 712.73 597.5 714.77"/><polyline class="cls-4" points="591.22 487.23 591.39 487.29 589.98 495.29 592.77 496.31 588.74 503.36 594.16 505.33 587.49 511.41 595.58 514.36 586.18 519.45 597.1 523.43 584.78 527.46 590.37 529.49 583.26 535.42 588.83 537.44 581.59 543.32 587.14 545.34 579.71 551.15 585.23 553.16 577.53 558.87 583.04 560.88 574.97 566.45 580.48 568.46 571.88 573.84 577.42 575.86 568.06 580.96 573.68 583.01 563.24 587.72 569.08 589.85 557.08 593.99 563.33 596.27 549.31 599.68 556.2 602.19 539.77 604.72 547.46 607.52 528.55 609.15 537.07 612.25 515.91 613.06 525.17 616.43 502.27 616.61 548.3 633.37 488.18 620 567.79 648.97 566.46 657 575.24 660.2 572.37 667.67 579.88 670.4 576.26 677.6 583.22 680.13 579.15 687.16 585.82 689.59 581.46 696.51 587.98 698.89 583.41 705.74 589.83 708.08 585.12 714.87 596.74 719.1 586.67 723.95 595.41 727.13 588.11 732.99 594.15 735.19 589.5 742.01 592.91 743.25 590.89 751.03 591.67 751.31"/><text class="cls-6" transform="translate(485.38 821.2)"><tspan x="0" y="0">he</tspan><tspan class="cls-8" x="75.17" y="0">ww</tspan><tspan class="cls-9" x="181.66" y="0">w</tspan><tspan class="cls-7" x="233.34" y="0">o</tspan></text><path class="cls-5" d="m834.22,512.22c-5.29.39-9.95,1.64-14.3,2.06-5.45.53-10.25.46-14.39,1.22-5.61,1.04-10.66,1.22-14.31,3.12-4.51,2.35-7.97,6.12-10.32,10.64-1.9,3.65-2.48,8.55-3.52,14.16-.77,4.14-2.27,8.8-2.8,14.25-.42,4.34.1,10.35-.28,15.64-.39-5.29-1.89-11.1-2.32-15.44-.53-5.45-1.17-10.09-1.94-14.24-1.04-5.61-.92-10.49-2.82-14.14-2.35-4.51-6-7.26-10.51-9.61-3.65-1.9-7.78-4.71-13.39-5.75-4.14-.77-9.18.57-14.63.03-4.34-.42-8.54-1.56-13.83-1.95,5.29-.39,9.56-.76,13.9-1.19,5.45-.53,10.37-.19,14.52-.96,5.61-1.04,9.86-3.5,13.5-5.4,4.51-2.35,7.22-5.68,9.57-10.19,1.9-3.65,4.85-7.66,5.89-13.27.77-4.14-.5-9.16.03-14.61.42-4.34,1.65-9.14,2.04-14.43.39,5.29.68,10.18,1.1,14.52.53,5.45.55,10.31,1.32,14.46,1.04,5.61,2.92,10.06,4.82,13.71,2.35,4.51,5.91,7.2,10.42,9.55,3.65,1.9,7.83,4.21,13.44,5.25,4.14.77,9,.71,14.45,1.24,4.34.42,9.08.94,14.37,1.32Z"/><path class="cls-3" d="m834.22,512.22c-5.29.39-9.95,1.64-14.3,2.06-5.45.53-10.25.46-14.39,1.22-5.61,1.04-10.66,1.22-14.31,3.12-4.51,2.35-7.97,6.12-10.32,10.64-1.9,3.65-2.48,8.55-3.52,14.16-.77,4.14-2.27,8.8-2.8,14.25-.42,4.34.1,10.35-.28,15.64-.39-5.29-1.89-11.1-2.32-15.44-.53-5.45-1.17-10.09-1.94-14.24-1.04-5.61-.92-10.49-2.82-14.14-2.35-4.51-6-7.26-10.51-9.61-3.65-1.9-7.78-4.71-13.39-5.75-4.14-.77-9.18.57-14.63.03-4.34-.42-8.54-1.56-13.83-1.95,5.29-.39,9.56-.76,13.9-1.19,5.45-.53,10.37-.19,14.52-.96,5.61-1.04,9.86-3.5,13.5-5.4,4.51-2.35,7.22-5.68,9.57-10.19,1.9-3.65,4.85-7.66,5.89-13.27.77-4.14-.5-9.16.03-14.61.42-4.34,1.65-9.14,2.04-14.43.39,5.29.68,10.18,1.1,14.52.53,5.45.55,10.31,1.32,14.46,1.04,5.61,2.92,10.06,4.82,13.71,2.35,4.51,5.91,7.2,10.42,9.55,3.65,1.9,7.83,4.21,13.44,5.25,4.14.77,9,.71,14.45,1.24,4.34.42,9.08.94,14.37,1.32Z"/><path class="cls-1" d="m933.81,318.71c-16.64,17.51-24.66,1.65-48.81,1.65-24.15,0-24.15.28-48.3.28-24.15,0-24.15,2.95-48.3,2.95-24.15,0-24.15-5.42-48.31-5.42-24.15,0-24.15,4.47-48.31,4.47-24.15,0-24.15-.3-48.31-.3-24.15,0-24.15-.16-48.31-.16s-24.15-6.76-48.31-6.76-24.15,5.11-48.31,5.11-24.15-5.11-48.31-5.11-24.15,7.23-48.31,7.23-24.16-3.75-48.31-3.75-35.36,20.35-52,2.84c-17.51-18.42.46-28.92.46-54.33s-2.2-25.42-2.2-50.83,4.31-25.42,4.31-50.83c0-25.42,1.93-25.42,1.93-50.83s-5.56-25.42-5.56-50.84c0-25.42-10.87-30.63,6.64-49.06,16.64-17.51,22.27,4.2,46.43,4.2s24.15-.57,48.3-.57,24.15-1,48.3-1,24.15-6.12,48.31-6.12,24.15,3.96,48.31,3.96,24.15.13,48.31.13,24.15-.83,48.31-.83,24.15,4.28,48.31,4.28,24.15-5.17,48.31-5.17,24.15,2.13,48.31,2.13,24.15.31,48.31.31,24.16-6.97,48.31-6.97,34.4-16.22,51.04,1.29c17.51,18.42-8.19,28-8.19,53.42,0,25.42,3.98,25.42,3.98,50.83s7.35,25.42,7.35,50.83c0,25.42-.78,25.42-.78,50.83s-10.87,26.08-5.53,50.93c5.74,26.69,18.47,32.8.96,51.23Z"/><path class="cls-3" d="m933.81,318.71c-16.64,17.51-24.66,1.65-48.81,1.65-24.15,0-24.15.28-48.3.28-24.15,0-24.15,2.95-48.3,2.95-24.15,0-24.15-5.42-48.31-5.42-24.15,0-24.15,4.47-48.31,4.47-24.15,0-24.15-.3-48.31-.3-24.15,0-24.15-.16-48.31-.16s-24.15-6.76-48.31-6.76-24.15,5.11-48.31,5.11-24.15-5.11-48.31-5.11-24.15,7.23-48.31,7.23-24.16-3.75-48.31-3.75-35.36,20.35-52,2.84c-17.51-18.42.46-28.92.46-54.33s-2.2-25.42-2.2-50.83,4.31-25.42,4.31-50.83c0-25.42,1.93-25.42,1.93-50.83s-5.56-25.42-5.56-50.84c0-25.42-10.87-30.63,6.64-49.06,16.64-17.51,22.27,4.2,46.43,4.2s24.15-.57,48.3-.57,24.15-1,48.3-1,24.15-6.12,48.31-6.12,24.15,3.96,48.31,3.96,24.15.13,48.31.13,24.15-.83,48.31-.83,24.15,4.28,48.31,4.28,24.15-5.17,48.31-5.17,24.15,2.13,48.31,2.13,24.15.31,48.31.31,24.16-6.97,48.31-6.97,34.4-16.22,51.04,1.29c17.51,18.42-8.19,28-8.19,53.42,0,25.42,3.98,25.42,3.98,50.83s7.35,25.42,7.35,50.83c0,25.42-.78,25.42-.78,50.83s-10.87,26.08-5.53,50.93c5.74,26.69,18.47,32.8.96,51.23Z"/><path class="cls-5" d="m790.79,692.11c-.14,0-.28,0-.42-.03-.46-.08-.91-.1-1.31-.12-.47-.02-.91-.04-1.18-.15-.36-.14-.77-.43-1.19-.75-.29-.22-.58-.43-.88-.61-.4-.25-.78-.65-1.18-1.07-.19-.2-.37-.39-.56-.57-.14-.14-.29-.28-.43-.41-.47-.44-.91-.86-1.18-1.29-.29-.47-.47-1.1-.66-1.76l-.12-.4c-.13-.45-.12-.99-.11-1.61,0-.2,0-.4,0-.61,0-.68.1-1.32.35-2.15.24-.81.44-1.49.8-2.07l.07-.12c.4-.65.79-1.27,1.27-1.74.6-.58,1.2-1.06,1.85-1.46.62-.38,1.35-.67,2.17-.98.36-.14.81-.19,1.33-.25.34-.04.68-.08,1.02-.14l.36-.06c.69-.12,1.34-.24,2-.24.61,0,1.16-.15,1.64-.28.3-.08.62-.17.8-.17.31.05.67.26,1.05.48.36.21.77.46,1.23.63.44.16.87.46,1.32.77.23.16.46.32.7.46.2.12.4.24.59.36.54.32,1,.59,1.35.93.55.53,1.12,1.11,1.51,1.75.16.26.23.66.32,1.12.06.36.13.71.24,1.06.08.28.18.55.27.81.17.49.33.91.33,1.3,0,.71-.18,1.37-.41,2.17-.2.68-.49,1.3-.92,2.01-.28.45-.45.93-.59,1.36-.11.33-.25.74-.38.87-.56.54-1.35,1.06-1.97,1.45-.28.17-.72.29-1.19.42-.38.1-.77.21-1.13.35-.63.24-1.35.42-2.33.6-.3.05-.64.08-1.11.08-.2,0-1.07-.02-1.3-.02-.39,0-.77.03-1.16.07-.29.03-.57.05-.85.05Z"/><path d="m795.12,674.59c.13.07.29.16.41.23.39.23.88.52,1.47.74.27.1.61.33,1,.6.25.17.5.34.75.5.21.13.42.25.62.37.45.27.84.5,1.07.72.59.57,1.01,1.02,1.26,1.42.04.1.1.41.14.64.06.34.14.77.27,1.22.09.3.19.6.3.9.11.3.24.67.24.79,0,.51-.15,1.07-.35,1.74-.16.55-.4,1.05-.76,1.64-.37.6-.57,1.19-.74,1.66-.04.13-.1.29-.14.4-.45.4-1.07.81-1.58,1.12-.12.07-.53.18-.8.25-.38.1-.81.22-1.27.39-.54.2-1.18.37-2.07.52-.21.04-.47.05-.84.05-.19,0-.39,0-.58,0-.24,0-.48,0-.72,0-.48,0-.91.04-1.29.07-.27.02-.53.05-.72.05-.11,0-.15,0-.16,0-.55-.1-1.06-.12-1.5-.14-.25-.01-.63-.03-.72-.05-.17-.06-.55-.35-.83-.55-.29-.21-.61-.45-.98-.68-.24-.15-.55-.48-.89-.83-.2-.21-.4-.42-.6-.61-.15-.15-.3-.29-.46-.43-.38-.35-.77-.72-.93-.98-.18-.29-.33-.82-.49-1.38l-.12-.42c-.07-.23-.06-.68-.05-1.16,0-.21,0-.42,0-.64,0-.54.08-1.04.3-1.77.2-.7.37-1.25.62-1.66l.08-.13c.37-.59.69-1.11,1.04-1.45.52-.51,1.04-.92,1.59-1.26.5-.31,1.16-.57,1.91-.85.19-.07.59-.12.97-.16.33-.04.71-.08,1.12-.15l.36-.06c.65-.12,1.21-.22,1.74-.22.82,0,1.52-.2,2.04-.34.09-.02.19-.05.28-.07m.13-3.04c-.78,0-1.63.45-2.45.45-.92,0-1.75.18-2.62.33-.9.16-1.8.15-2.62.46-.86.32-1.69.65-2.43,1.11-.78.48-1.47,1.05-2.1,1.66-.65.64-1.11,1.39-1.57,2.14-.48.77-.71,1.58-.96,2.44-.25.85-.41,1.65-.41,2.57s-.09,1.79.16,2.64c.25.86.46,1.77.94,2.53.47.75,1.19,1.35,1.84,1.98.63.62,1.21,1.36,1.99,1.84.75.47,1.48,1.17,2.34,1.49.82.31,1.85.18,2.75.34.23.04.45.05.68.05.66,0,1.33-.12,2.01-.12.44,0,.87.02,1.3.02.46,0,.92-.02,1.37-.1.9-.16,1.77-.36,2.6-.67.86-.32,1.84-.43,2.59-.9.78-.48,1.59-1.03,2.22-1.65.65-.64.73-1.75,1.2-2.5.48-.77.84-1.52,1.09-2.38.25-.85.47-1.67.47-2.59s-.41-1.68-.66-2.53c-.25-.86-.24-1.78-.72-2.55-.47-.75-1.08-1.39-1.74-2.03-.63-.62-1.42-1-2.19-1.49s-1.43-1.04-2.29-1.36c-.82-.31-1.59-1.02-2.5-1.19-.1-.02-.2-.03-.31-.03h0Z"/><path class="cls-10" d="m293.58,1547.87c-67.19,0-101.35-.63-134.38-1.23-33.06-.61-67.25-1.23-134.51-1.23-5.55,0-8.99-2.61-8.99-15.58,0-40.82-3.12-61.56-6.14-81.63-2.98-19.81-6.06-40.29-6.06-80.59,0-8.15,12.44-16.89,21.19-16.89,67.23,0,101.41-.17,134.46-.34,33.04-.17,67.21-.34,134.42-.34s101.2,2.5,134.19,4.92c33.11,2.43,67.35,4.94,134.7,4.94s101.68-3.78,134.82-7.44c32.95-3.64,67.03-7.4,134.06-7.4s101.21,2.43,134.19,4.78c33.11,2.36,67.35,4.8,134.69,4.8s101.28,1.46,134.3,2.87c33.08,1.42,67.3,2.88,134.59,2.88s101.46-.78,134.53-1.52c33.03-.75,67.18-1.52,134.37-1.52s101.5-1.31,134.58-2.57c33.02-1.26,67.16-2.56,134.31-2.56,9.51,0,22.73,7.75,22.73,15.39,0,40.38-2.02,60.91-3.97,80.76-1.97,20.02-4,40.72-4,81.45,0,9.64-7.63,13.08-14.77,13.08-67.14,0-101.28-1.54-134.29-3.03-33.09-1.5-67.3-3.04-134.6-3.04s-101.54,1.9-134.64,3.74c-33,1.83-67.12,3.73-134.25,3.73s-101.3-1.21-134.32-2.39c-33.08-1.17-67.28-2.39-134.56-2.39s-101.33-.77-134.36-1.52c-33.07-.75-67.26-1.53-134.52-1.53s-101.55,1.97-134.65,3.87c-33,1.9-67.12,3.86-134.24,3.86s-101.47.94-134.54,1.84c-33.03.9-67.17,1.84-134.35,1.84Z"/><path d="m831.35,1348.57c66.97,0,101.02,2.43,133.95,4.77,33.17,2.36,67.47,4.81,134.94,4.81s101.17,1.46,134.15,2.87c33.12,1.42,67.37,2.88,134.74,2.88s101.52-.78,134.6-1.53c33.01-.75,67.14-1.52,134.29-1.52s101.6-1.31,134.71-2.57c32.98-1.26,67.09-2.56,134.18-2.56,8.09,0,19.23,6.89,19.23,11.89,0,40.21-2.01,60.65-3.95,80.42-1.97,20.1-4.02,40.89-4.02,81.79,0,8.88-8.62,9.58-11.27,9.58-67.06,0-101.16-1.54-134.13-3.03-33.13-1.5-67.38-3.04-134.76-3.04s-101.69,1.9-134.83,3.74c-32.95,1.83-67.03,3.72-134.05,3.72s-101.21-1.21-134.19-2.38c-33.11-1.18-67.34-2.39-134.69-2.39s-101.28-.77-134.28-1.52c-33.09-.75-67.3-1.53-134.6-1.53s-101.7,1.97-134.85,3.87c-32.95,1.89-67.02,3.85-134.04,3.85s-101.54.94-134.64,1.84c-33,.9-67.13,1.84-134.25,1.84s-101.3-.63-134.32-1.23c-33.08-.61-67.29-1.23-134.57-1.23-2.97,0-3.52-1.04-3.96-1.88-1.02-1.94-1.53-5.37-1.53-10.2,0-41.08-3.14-61.96-6.18-82.15-3.1-20.59-6.02-40.04-6.02-80.07,0-5.63,10.25-13.39,17.69-13.39,67.24,0,101.42-.17,134.48-.34,33.04-.17,67.2-.34,134.41-.34s101.01,2.5,133.93,4.91c33.17,2.43,67.48,4.95,134.96,4.95s101.97-3.79,135.21-7.46c32.86-3.63,66.84-7.38,133.67-7.38m0-7c-134.44,0-134.44,14.83-268.88,14.83s-134.44-9.87-268.89-9.87-134.44.69-268.89.69c-10.43,0-24.69,9.95-24.69,20.39,0,81.11,12.2,81.11,12.2,162.21,0,10.43,2.06,19.08,12.49,19.08,134.45,0,134.45,2.46,268.89,2.46s134.45-3.68,268.89-3.68,134.45-7.72,268.89-7.72,134.44,3.05,268.89,3.05,134.44,4.78,268.88,4.78,134.44-7.46,268.89-7.46,134.44,6.07,268.89,6.07c10.43,0,18.27-6.14,18.27-16.58,0-81.11,7.96-81.11,7.96-162.21,0-10.43-15.8-18.89-26.23-18.89-134.45,0-134.45,5.13-268.89,5.13s-134.45,3.05-268.89,3.05-134.45-5.75-268.89-5.75-134.44-9.58-268.89-9.58h0Z"/></svg>